<?xml version="1.0" standalone="no"?>
<!DOCTYPE svg PUBLIC "-//W3C//DTD SVG 20010904//EN"
 "http://www.w3.org/TR/2001/REC-SVG-20010904/DTD/svg10.dtd">
<svg version="1.0" xmlns="http://www.w3.org/2000/svg"
 width="1036.000000pt" height="1036.000000pt" viewBox="0 0 1036.000000 1036.000000"
 preserveAspectRatio="xMidYMid meet">

<g transform="translate(0.000000,1036.000000) scale(0.100000,-0.100000)"
fill="#000000" stroke="none">
<path d="M4760 10354 c-407 -47 -542 -70 -805 -135 -373 -93 -685 -205 -1010
-363 -800 -390 -1431 -918 -1961 -1641 -478 -652 -816 -1487 -929 -2300 -98
-700 -60 -1380 115 -2045 75 -284 201 -645 285 -820 15 -30 48 -98 73 -150
237 -494 582 -979 982 -1381 158 -158 176 -175 355 -325 342 -288 691 -511
1118 -715 227 -107 369 -163 617 -242 485 -155 873 -225 1275 -232 192 -3 200
-3 85 5 -522 38 -818 88 -1215 205 -412 122 -712 248 -1095 462 -392 219 -784
517 -1110 843 -276 276 -542 610 -728 915 -134 221 -147 244 -246 442 -123
247 -181 387 -271 658 -119 357 -182 633 -230 1006 -52 409 -53 819 -5 1234
20 170 25 201 55 370 53 293 212 814 330 1080 137 308 334 661 505 905 515
735 1210 1326 2007 1706 222 106 225 108 348 154 256 97 471 163 725 223 408
97 883 146 1290 133 486 -14 921 -84 1376 -221 170 -51 449 -153 569 -208 629
-286 1104 -609 1558 -1056 170 -166 419 -450 507 -577 8 -12 35 -48 59 -79
129 -170 347 -533 453 -755 116 -242 158 -342 233 -560 136 -392 218 -749 259
-1135 9 -77 17 -153 19 -170 2 -16 5 15 6 71 5 367 -196 1158 -414 1629 -130
281 -303 596 -428 778 -374 548 -807 990 -1330 1360 -163 115 -203 141 -392
249 -264 151 -520 274 -735 353 -69 25 -135 50 -146 55 -104 43 -512 153 -724
195 -342 68 -456 77 -945 80 -247 2 -466 1 -485 -1z"/>
<path d="M4723 10018 c-23 -73 -58 -186 -78 -250 l-37 -117 -41 -4 c-24 -2 -9
-4 33 -5 41 0 84 4 95 9 15 7 9 8 -22 4 -49 -6 -50 -4 -29 65 15 51 28 57 116
59 l56 1 27 -55 27 -55 -27 0 c-14 0 -24 -3 -20 -6 10 -11 257 7 257 18 0 6
-12 8 -28 5 -27 -6 -30 -1 -110 146 -44 84 -100 189 -124 234 -24 46 -45 83
-48 83 -3 0 -24 -60 -47 -132z m42 -139 c43 -83 40 -89 -44 -89 -46 0 -53 2
-48 18 24 87 43 142 48 142 4 0 23 -32 44 -71z"/>
<path d="M5720 10111 c0 -4 18 -11 40 -15 22 -3 40 -12 40 -19 0 -6 -18 -106
-39 -222 l-38 -210 -49 3 c-86 6 -41 -8 107 -33 79 -14 145 -25 147 -25 2 0 0
5 -3 10 -3 6 -19 10 -35 10 -16 0 -31 4 -34 9 -4 5 -1 43 6 83 l11 75 97 -5
c77 -4 103 -1 129 12 75 39 96 147 41 209 -42 48 -106 72 -251 97 -68 11 -134
23 -146 25 -13 3 -23 1 -23 -4z m280 -66 c38 -20 50 -43 50 -101 0 -81 -61
-144 -140 -144 -28 0 -32 3 -27 23 3 12 13 63 22 112 9 50 19 98 21 108 7 21
35 22 74 2z"/>
<path d="M4030 10026 c-71 -20 -78 -25 -31 -23 l44 2 32 -125 c18 -69 32 -126
31 -127 -1 -2 -71 44 -154 102 -84 58 -160 105 -169 105 -25 0 -137 -32 -148
-42 -6 -5 7 -6 32 -2 l42 6 10 -38 c5 -22 24 -100 41 -174 17 -74 36 -148 41
-164 16 -51 11 -64 -27 -76 -19 -7 -33 -14 -31 -17 7 -6 157 39 157 48 0 4
-14 3 -32 -2 -18 -5 -35 -5 -39 -1 -3 4 -21 70 -38 147 -18 77 -35 148 -38
158 -7 25 -3 23 217 -124 100 -66 187 -122 195 -125 10 -4 6 22 -16 103 -40
145 -89 340 -89 351 0 5 17 13 38 19 36 10 36 10 7 11 -16 0 -50 -5 -75 -12z"/>
<path d="M6610 9912 c0 -6 13 -13 30 -17 16 -4 32 -10 34 -13 4 -7 -147 -408
-157 -419 -3 -2 -15 1 -27 7 -11 6 -29 10 -38 8 -10 -2 1 -10 28 -20 25 -9 81
-30 125 -47 92 -36 85 -34 85 -21 0 6 -6 10 -12 10 -37 1 -39 16 -12 88 14 40
30 72 34 72 4 0 10 -12 13 -27 4 -16 15 -58 26 -96 l20 -67 -27 6 c-48 10 -3
-12 106 -51 57 -20 106 -34 109 -31 3 3 -6 10 -19 15 -20 7 -33 28 -55 88 -50
130 -51 119 8 126 28 4 62 13 74 21 54 35 73 150 34 200 -33 42 -83 69 -224
121 -71 26 -136 50 -142 52 -7 3 -13 1 -13 -5z m229 -92 c5 0 20 -12 35 -26
21 -21 26 -36 26 -73 0 -88 -64 -151 -154 -151 -42 0 -47 2 -41 18 4 9 25 64
47 122 48 125 46 123 65 116 8 -3 18 -6 22 -6z"/>
<path d="M2850 9578 c-101 -57 -160 -98 -92 -64 18 9 37 14 42 11 15 -9 168
-298 181 -343 10 -34 10 -47 -1 -67 -31 -57 -95 -37 -129 40 -30 69 -91 81
-121 25 -27 -50 14 -109 89 -130 80 -21 188 35 232 121 36 71 27 112 -57 275
-72 138 -76 148 -58 161 10 7 21 13 26 13 4 0 8 5 8 10 0 16 -8 12 -120 -52z"/>
<path d="M7457 9453 c-30 -49 -53 -90 -51 -92 2 -3 21 11 42 31 77 74 141 86
217 41 25 -16 45 -30 45 -33 0 -6 7 -1 -258 -153 -107 -61 -189 -114 -184
-119 12 -12 335 -209 337 -206 1 2 25 40 53 86 29 45 52 88 52 94 0 6 -22 -10
-50 -36 -81 -76 -130 -84 -210 -35 l-51 31 45 29 c60 37 309 180 364 208 23
12 42 25 42 29 0 4 -28 25 -62 45 -35 21 -108 67 -163 102 -55 36 -103 65
-106 65 -4 0 -31 -39 -62 -87z"/>
<path d="M4812 9480 c-379 -32 -840 -134 -1170 -259 -508 -193 -921 -437
-1337 -791 -167 -142 -227 -202 -384 -380 -265 -302 -414 -512 -579 -815 -118
-217 -229 -461 -217 -474 10 -9 22 14 79 144 108 246 299 579 441 770 35 47
215 275 230 291 5 6 42 46 80 89 264 294 660 616 1005 818 473 276 1009 464
1555 547 218 32 379 44 630 43 486 0 853 -57 1345 -210 395 -123 864 -364
1216 -626 76 -57 155 -117 174 -134 19 -17 83 -72 141 -122 287 -244 684 -728
854 -1036 15 -27 43 -79 63 -114 20 -36 62 -119 94 -185 60 -125 78 -153 78
-123 0 22 -138 299 -215 432 -98 169 -246 381 -384 550 -83 101 -290 333 -301
337 -5 2 -42 35 -82 74 -205 198 -519 435 -781 588 -128 75 -421 219 -568 279
-346 141 -748 243 -1154 293 -152 18 -657 27 -813 14z"/>
<path d="M2124 9129 c-49 -39 -98 -77 -108 -85 -11 -7 -17 -17 -13 -20 4 -4
18 3 32 16 15 14 29 20 33 14 55 -63 185 -229 206 -262 14 -23 29 -62 32 -86
5 -37 3 -46 -17 -65 -57 -53 -114 -11 -304 227 l-59 74 24 18 c14 10 22 21 18
25 -3 3 -56 -33 -117 -81 -61 -48 -108 -90 -106 -93 3 -2 19 5 35 17 16 12 33
22 39 22 5 0 41 -40 80 -89 93 -117 139 -157 201 -175 91 -27 176 3 233 82 26
36 32 54 35 112 2 37 -1 84 -8 104 -6 19 -48 82 -92 138 -44 57 -82 108 -85
115 -3 7 8 24 24 37 15 14 23 26 17 26 -6 0 -51 -32 -100 -71z"/>
<path d="M8190 9085 c0 -5 9 -19 21 -31 l21 -22 -25 -131 c-24 -123 -28 -133
-65 -173 -21 -24 -55 -61 -75 -83 -33 -37 -36 -39 -54 -24 -27 24 -46 33 -42
21 6 -16 200 -182 212 -182 7 1 -3 14 -21 29 l-33 29 78 88 c71 79 87 91 168
129 127 59 129 60 165 34 55 -42 40 -14 -26 45 -36 32 -68 56 -71 52 -3 -3 6
-15 21 -27 15 -12 26 -25 24 -30 -4 -11 -179 -91 -189 -87 -6 3 39 208 47 217
2 2 13 -4 24 -14 11 -10 22 -16 25 -13 3 3 -34 38 -82 78 -48 41 -96 80 -105
88 -10 8 -18 11 -18 7z"/>
<path d="M6332 9030 c-73 -52 -113 -139 -94 -204 7 -27 9 -28 24 -12 9 9 21
16 27 16 6 0 11 9 11 20 0 13 7 20 20 20 13 0 24 10 30 26 10 26 40 62 40 48
0 -4 6 1 14 11 12 17 12 21 -7 34 -15 11 -22 12 -25 3 -2 -7 -10 -12 -18 -12
-7 0 -25 -17 -38 -37 -52 -78 -66 -89 -66 -50 1 53 63 122 118 131 38 6 45 3
79 -28 37 -34 38 -35 35 -102 -4 -70 -9 -81 -88 -174 -12 -14 -40 -47 -63 -73
-102 -119 -107 -197 -15 -211 53 -8 74 13 69 67 -2 30 0 37 11 33 8 -3 14 -1
14 5 0 9 6 18 36 52 5 7 13 20 17 30 4 10 11 15 17 12 5 -3 10 0 10 8 0 8 7
17 15 21 8 3 20 16 25 28 13 30 33 61 44 69 15 12 19 141 4 183 -10 31 -25 46
-77 77 -79 48 -113 50 -169 9z m182 -275 c-4 -8 -12 -15 -20 -15 -8 0 -14 -10
-14 -25 0 -13 -8 -32 -19 -42 -23 -22 -46 -64 -43 -79 1 -6 -9 -21 -23 -34
-14 -13 -25 -32 -25 -43 0 -11 -5 -17 -12 -14 -32 11 31 152 111 250 18 21 53
23 45 2z"/>
<path d="M4170 8970 c0 -7 24 -20 36 -20 13 0 1 19 -16 23 -11 3 -20 2 -20 -3z"/>
<path d="M1438 8448 c-83 -22 -164 -130 -175 -232 -10 -93 58 -200 160 -253
47 -24 121 -28 171 -9 50 19 117 79 142 127 21 41 21 114 0 159 -11 23 -14 27
-10 10 23 -103 17 -144 -27 -195 -26 -29 -38 -35 -72 -35 -58 0 -139 43 -208
110 -93 91 -125 184 -79 230 26 26 45 25 102 -5 61 -33 102 -33 124 0 39 59
-38 116 -128 93z"/>
<path d="M8778 8372 c-34 -14 -77 -62 -86 -96 -13 -46 0 -103 38 -164 39 -65
39 -102 -1 -136 -30 -25 -73 -33 -95 -18 -19 13 -44 56 -44 77 0 12 13 39 30
61 36 48 40 98 9 114 -31 17 -67 4 -85 -32 -47 -91 77 -279 195 -295 130 -18
179 97 106 245 -41 82 -39 108 7 147 42 35 99 35 127 -1 29 -37 26 -56 -14
-104 -38 -45 -44 -79 -19 -104 40 -41 104 4 104 73 0 45 -38 126 -78 168 -58
60 -140 87 -194 65z"/>
<path d="M4671 8271 c6 -16 23 -43 39 -61 16 -18 27 -37 24 -41 -3 -5 -27 -9
-54 -9 -71 0 -158 -35 -203 -82 -33 -35 -37 -44 -31 -72 3 -17 12 -38 20 -47
19 -21 18 -33 -5 -53 -68 -62 -216 -17 -197 60 6 24 5 26 -8 15 -23 -19 -19
-41 14 -81 17 -19 30 -38 30 -42 0 -24 44 -97 65 -108 28 -15 33 -40 9 -40 -9
0 -29 -9 -45 -21 -31 -22 -40 -18 -66 28 -8 15 -9 23 0 32 17 17 2 24 -33 16
-31 -7 -32 -9 -27 -48 3 -22 15 -52 26 -68 l20 -27 -33 -25 c-33 -26 -96 -141
-96 -176 0 -18 24 -46 65 -75 16 -12 18 -19 10 -52 -14 -55 -64 -79 -165 -79
-67 0 -79 3 -113 29 -47 36 -62 25 -19 -15 18 -16 32 -34 32 -39 0 -17 74 -60
104 -60 24 0 27 -2 16 -15 -7 -8 -18 -15 -25 -15 -20 0 -105 -97 -105 -120 0
-11 7 -31 15 -44 15 -22 14 -23 -154 -100 -167 -77 -340 -180 -393 -236 -25
-26 -36 -55 -54 -144 -4 -23 -7 -27 -14 -15 -7 10 -9 6 -8 -16 3 -65 -15 -214
-34 -285 -28 -101 -32 -175 -13 -203 8 -12 15 -44 16 -72 l1 -50 9 45 c5 25
12 52 15 60 12 27 12 55 -1 93 -10 30 -10 37 -1 34 7 -3 13 1 13 9 0 8 -5 14
-10 14 -5 0 -5 5 1 13 10 12 18 56 27 147 4 51 5 59 4 115 0 22 5 60 10 85 9
39 17 85 20 113 2 22 21 -8 21 -34 0 -29 15 -40 23 -16 2 6 10 -5 17 -27 16
-49 41 -80 51 -64 4 7 2 26 -5 42 -20 50 -39 143 -33 160 3 8 23 24 44 36 43
23 76 43 83 50 10 9 85 50 155 84 272 131 240 114 343 184 35 23 68 42 73 42
19 0 -12 -120 -36 -140 -10 -8 -11 -19 -3 -43 11 -35 12 -44 23 -129 5 -41 4
-58 -4 -58 -7 0 -1 -21 14 -50 14 -27 25 -55 25 -62 0 -7 13 -25 29 -40 15
-16 34 -40 42 -55 8 -15 34 -64 58 -108 43 -79 107 -242 117 -300 10 -56 7
-205 -5 -219 -6 -7 -9 -20 -6 -27 6 -17 -60 -159 -74 -159 -5 0 -13 5 -17 12
-5 7 -12 5 -22 -8 -14 -18 -14 -18 -9 4 3 12 2 22 -3 22 -4 0 -9 52 -12 115
-2 84 -7 118 -17 124 -7 5 -10 14 -7 20 4 6 3 11 -2 11 -6 0 -12 -7 -16 -15
-3 -8 -1 -15 5 -15 6 0 7 -5 3 -11 -11 -18 -24 14 -30 72 -3 29 -12 64 -20 78
l-15 26 8 -35 c4 -19 8 -87 8 -150 0 -63 4 -135 8 -160 7 -42 7 -44 -8 -26 -8
11 -15 26 -15 33 0 7 -5 13 -11 13 -6 0 -9 -17 -7 -42 l3 -43 -60 0 c-33 0
-64 3 -70 7 -5 4 -24 19 -41 33 -38 30 -47 31 -39 6 5 -15 1 -19 -14 -18 -16
1 -18 5 -9 20 7 14 7 17 -1 12 -8 -5 -10 1 -5 20 6 25 5 26 -31 22 -31 -4 -36
-2 -32 14 3 12 0 16 -9 12 -23 -8 -16 -64 14 -114 48 -82 115 -147 158 -154
73 -12 80 -14 127 -51 50 -39 56 -58 32 -90 -8 -10 -15 -33 -15 -51 0 -17 -14
-58 -30 -90 -32 -62 -162 -261 -170 -262 -3 -1 -5 11 -4 27 2 31 -4 44 -16 37
-4 -2 -3 -25 2 -51 10 -45 9 -47 -35 -103 -25 -32 -48 -68 -51 -79 -4 -12 -20
-32 -37 -46 -16 -14 -29 -32 -29 -40 0 -9 -4 -16 -8 -16 -5 0 -15 -12 -23 -27
-8 -16 -24 -43 -36 -62 -13 -19 -28 -52 -34 -74 -7 -27 -26 -55 -54 -81 -50
-47 -90 -117 -100 -177 l-7 -42 -53 57 c-51 55 -116 153 -130 195 -3 12 -10
21 -14 21 -5 0 -7 17 -6 38 1 20 3 37 4 37 1 0 3 32 5 70 9 153 24 245 43 252
8 3 12 11 9 19 -3 7 2 18 10 25 10 8 14 26 12 51 -1 26 3 42 12 48 8 6 10 10
4 10 -7 0 -14 11 -16 25 -3 14 -1 25 5 25 5 0 7 18 3 45 -7 45 1 118 13 111 3
-2 6 22 6 55 0 41 -4 59 -12 59 -15 0 -15 1 -18 50 -2 19 -1 29 2 23 3 -7 9
-13 15 -13 6 0 7 8 3 18 -4 9 -9 51 -12 92 -2 41 -9 79 -14 84 -9 10 -32 -37
-44 -94 l-8 -35 -11 46 c-7 26 -13 86 -15 135 -2 86 -14 125 -27 91 -7 -20 1
-137 14 -197 42 -189 47 -417 13 -675 -12 -88 -21 -187 -21 -220 0 -33 -5 -91
-10 -128 -6 -38 -7 -74 -3 -80 4 -7 6 -23 4 -36 -2 -15 1 -21 9 -16 6 4 9 13
6 21 -3 8 -1 14 4 14 15 0 40 -31 40 -50 0 -24 60 -110 76 -110 6 0 15 -11 18
-25 4 -14 10 -24 15 -21 9 6 43 -30 61 -64 24 -44 14 -220 -13 -220 -4 0 -6
-4 -2 -10 8 -13 -65 -92 -81 -86 -8 3 -11 0 -8 -8 3 -7 -2 -16 -10 -19 -9 -4
-16 -13 -16 -20 0 -8 -8 -25 -18 -38 -10 -13 -24 -40 -31 -59 -25 -69 -21 -60
-132 -280 -47 -92 -69 -276 -49 -409 7 -48 17 -90 21 -96 5 -5 9 -16 9 -26 0
-24 81 -146 136 -206 27 -29 72 -68 99 -86 28 -18 70 -48 95 -65 25 -18 59
-34 75 -36 17 -2 59 -9 94 -16 35 -6 98 -11 140 -10 104 2 99 3 161 -3 85 -8
124 -18 108 -29 -9 -7 -7 -8 8 -5 12 2 46 -2 75 -9 29 -8 69 -14 87 -14 23 0
32 -4 28 -12 -2 -7 -12 -37 -21 -66 -29 -93 -11 -89 37 8 25 52 57 105 70 116
23 22 88 38 88 22 0 -4 -6 -8 -14 -8 -28 0 -74 -56 -90 -111 -40 -139 -51
-402 -19 -467 27 -54 72 -76 157 -75 88 0 158 20 306 88 150 69 252 100 389
119 124 18 196 20 121 4 -117 -24 -262 -62 -335 -88 -88 -31 -294 -117 -310
-130 -18 -15 -147 -50 -182 -50 -110 0 -174 50 -214 166 -20 57 -24 89 -24
186 0 78 -3 114 -10 107 -16 -17 -11 -217 8 -286 33 -124 94 -179 211 -190 71
-6 127 5 211 43 174 78 249 110 320 134 79 28 321 90 348 90 11 0 14 -14 14
-52 -1 -36 7 -67 21 -95 38 -73 26 -160 -25 -187 -24 -12 -26 -15 -10 -21 27
-11 63 19 74 64 13 48 2 114 -27 172 -33 65 -12 139 39 139 6 0 8 -18 5 -47
-7 -55 6 -115 25 -121 9 -3 11 0 6 8 -10 17 -7 113 5 144 6 17 18 25 45 28 33
4 36 2 30 -16 -4 -12 -9 -44 -12 -73 -4 -41 -1 -61 18 -98 31 -61 56 -78 104
-69 88 16 155 122 155 245 l0 70 34 14 c18 8 45 28 59 44 l25 30 40 -47 c22
-26 44 -43 48 -39 5 4 2 12 -5 16 -44 27 44 125 171 190 62 32 92 41 155 46
78 7 79 8 101 45 12 21 35 44 51 51 16 7 27 17 25 21 -3 4 13 8 35 8 35 0 41
-3 41 -21 0 -11 5 -17 10 -14 6 4 8 11 5 16 -4 5 7 9 24 9 17 0 74 11 128 24
257 64 272 66 274 39 1 -10 2 -22 4 -28 1 -5 3 -18 3 -28 1 -11 7 -15 14 -11
7 4 8 3 4 -5 -4 -6 0 -18 8 -27 20 -19 20 -42 1 -88 -16 -37 -29 -44 -100 -48
-55 -4 -46 -22 12 -26 57 -3 103 21 133 70 25 40 20 78 -15 140 -35 60 -33 78
8 78 56 0 167 -13 167 -19 0 -3 -20 -16 -43 -27 -26 -13 -42 -29 -42 -39 0
-10 -6 -20 -13 -23 -20 -6 -14 -39 9 -45 27 -7 68 8 75 28 8 21 -3 32 -18 17
-17 -17 -27 -15 -21 6 2 10 26 32 51 49 l47 31 75 -14 c103 -18 275 -17 368 2
99 20 240 92 286 146 46 53 60 109 54 216 -6 96 -24 144 -80 207 -49 56 -134
95 -210 95 -21 0 -38 3 -38 7 0 12 92 93 106 93 6 0 17 14 24 30 7 17 15 30
19 30 4 0 13 17 20 38 8 20 19 44 26 52 7 8 20 32 28 52 23 56 158 253 227
333 34 39 69 79 79 90 10 11 20 28 24 38 3 9 11 17 16 17 12 0 24 48 22 90 -2
38 -28 153 -40 179 -65 137 -160 274 -192 277 -7 1 -18 3 -24 4 -5 1 -14 2
-19 1 -5 -1 -23 5 -40 13 -92 44 -321 70 -436 51 -34 -6 -39 -4 -34 9 3 8 15
16 27 18 20 3 22 8 20 74 -1 56 -8 86 -31 135 -16 35 -46 102 -67 149 -20 47
-43 99 -50 116 -8 16 -24 41 -37 55 -13 14 -32 43 -43 65 -11 21 -37 66 -57
99 -21 33 -52 86 -70 118 -18 31 -37 57 -43 57 -5 0 -18 21 -29 46 -10 25 -20
43 -23 41 -7 -8 37 -115 53 -128 22 -18 220 -340 227 -371 4 -14 9 -33 12 -40
5 -12 -16 -14 -132 -11 l-138 3 75 -19 c41 -10 102 -24 135 -31 95 -19 99 -22
149 -116 25 -48 45 -89 43 -90 -2 -2 -14 7 -27 21 -13 14 -27 25 -32 25 -5 0
-18 9 -30 20 -27 25 -37 17 -13 -10 22 -25 9 -26 -26 -2 -14 9 -24 23 -21 31
3 10 0 12 -11 8 -9 -3 -19 -2 -22 3 -4 6 -11 10 -16 10 -6 0 -3 -7 5 -16 19
-18 11 -41 -8 -25 -7 6 -16 8 -19 4 -4 -3 -7 -1 -7 6 0 7 -3 10 -7 8 -5 -3
-18 -1 -30 4 -16 6 -21 14 -17 26 5 17 5 17 -9 1 -18 -23 -27 -23 -27 0 0 14
-2 15 -10 2 -7 -12 -30 -14 -118 -12 -137 4 -232 -12 -286 -48 -101 -67 -201
-121 -210 -113 -3 4 -6 18 -6 32 0 37 -31 141 -42 141 -6 0 -7 -10 -3 -22 4
-13 15 -70 25 -128 15 -95 38 -175 39 -142 1 7 6 10 11 7 7 -4 7 -12 0 -25
-11 -20 -5 -46 18 -72 13 -15 12 -21 -7 -51 -18 -29 -36 -40 -111 -67 -50 -18
-93 -36 -96 -41 -19 -31 -467 -210 -565 -225 -32 -5 -39 -4 -39 10 0 9 -7 16
-15 16 -8 0 -15 -7 -15 -16 0 -9 5 -12 12 -8 7 4 8 3 4 -5 -4 -7 -13 -10 -19
-8 -12 4 -37 -16 -37 -28 0 -4 -19 -26 -43 -49 -24 -23 -54 -64 -68 -90 -13
-27 -29 -51 -36 -53 -7 -3 -10 -9 -7 -14 3 -5 1 -9 -4 -9 -6 0 -45 -42 -88
-94 -42 -52 -86 -97 -96 -99 -10 -3 -18 -14 -18 -26 0 -19 -10 -26 -33 -22 -5
1 -21 -6 -37 -16 -21 -12 -26 -19 -17 -25 7 -5 -2 -8 -23 -8 -19 0 -41 -4 -49
-9 -13 -9 -71 7 -71 20 0 9 32 35 39 31 3 -2 7 1 9 7 2 6 -11 10 -32 9 -35 -1
-48 -12 -24 -20 16 -6 0 -28 -20 -28 -14 0 -15 2 -3 9 11 7 4 11 -25 16 -81
14 -111 26 -138 54 -32 33 -61 31 -70 -5 -7 -27 -28 -30 -90 -13 -30 8 -53 7
-105 -6 -65 -16 -69 -16 -120 4 -29 12 -99 34 -157 50 -98 28 -194 72 -194 90
0 4 9 16 21 27 12 10 27 31 35 46 8 16 19 28 24 28 5 0 31 21 58 48 74 72 131
114 144 106 7 -4 8 -3 4 4 -5 8 4 12 26 13 58 3 63 4 77 13 8 5 16 4 20 -2 4
-7 12 -6 24 3 12 8 14 15 8 20 -17 10 -13 35 7 35 14 0 15 -2 2 -10 -12 -8
-12 -10 3 -16 21 -8 50 3 42 16 -3 5 6 12 20 16 14 3 25 10 25 14 0 4 21 13
47 21 69 19 34 23 -40 5 -36 -9 -78 -13 -95 -10 -23 5 -32 3 -32 -7 0 -10 -3
-10 -12 -1 -7 7 -19 12 -27 12 -12 0 -12 -2 2 -12 15 -12 14 -13 -13 -15 -31
-2 -36 6 -21 35 5 9 17 34 26 55 9 20 25 46 37 57 13 12 18 25 14 37 -6 17 -5
17 7 1 11 -13 16 -15 25 -6 18 18 15 28 -8 28 -11 0 -20 5 -20 11 0 6 6 9 13
6 6 -2 21 3 32 12 22 19 71 36 128 47 38 6 61 24 33 24 -9 0 -16 4 -16 9 0 6
-12 6 -32 0 -18 -5 -41 -6 -52 -3 -12 4 -16 2 -12 -5 7 -11 -11 -16 -46 -13
-11 1 -15 -3 -12 -13 4 -8 1 -15 -5 -15 -6 0 -11 9 -11 20 0 11 7 20 15 20 8
0 15 7 15 15 0 8 7 15 15 15 8 0 15 4 15 8 0 4 8 8 18 9 9 1 29 5 44 8 39 10
79 -1 72 -20 -4 -10 4 -18 22 -25 16 -6 34 -18 41 -27 8 -10 18 -13 30 -8 16
6 15 8 -7 19 -46 21 -95 78 -54 62 13 -5 14 -4 5 7 -9 11 -2 17 32 27 23 8 56
22 73 31 22 12 35 14 42 7 7 -7 14 -4 24 11 7 11 21 21 31 21 11 0 15 -4 11
-12 -4 -7 -3 -8 5 -4 6 4 9 12 6 17 -4 5 0 9 8 9 8 0 17 -10 20 -22 4 -12 9
-19 12 -16 4 3 2 16 -5 27 -9 19 -7 23 17 32 69 26 144 32 151 11 3 -9 -4 -11
-21 -8 -16 3 -27 -1 -31 -10 -3 -8 -18 -14 -34 -14 -22 0 -28 -5 -30 -25 -2
-30 2 -31 35 -5 14 11 40 22 58 26 29 5 34 11 37 38 3 29 6 31 36 28 17 -2 32
1 32 7 0 6 23 20 51 32 32 14 46 25 38 30 -8 4 4 12 32 19 24 7 57 19 72 27
32 17 43 12 31 -14 -4 -10 -8 -27 -8 -38 -1 -10 -11 -24 -24 -31 -28 -14 -63
-50 -55 -57 3 -3 -10 -10 -28 -16 -27 -7 -29 -9 -11 -10 28 -1 19 -21 -10 -21
-18 0 -19 -2 -7 -17 12 -15 12 -16 -3 -10 -12 4 -18 1 -18 -9 0 -8 -5 -12 -11
-9 -6 4 -19 -2 -30 -14 -16 -17 -17 -21 -4 -21 8 0 15 5 15 12 0 6 3 8 6 5 4
-4 2 -13 -5 -20 -6 -8 -9 -21 -6 -29 3 -8 -5 -24 -19 -37 -13 -13 -22 -29 -20
-36 3 -8 -4 -18 -15 -25 -23 -12 -28 -30 -8 -30 6 1 21 15 32 32 23 36 45 47
45 24 0 -9 -4 -16 -10 -16 -5 0 -12 -11 -16 -25 -3 -14 -10 -25 -15 -25 -5 0
-9 -7 -9 -15 0 -11 -7 -14 -24 -9 -36 9 -74 -21 -87 -68 -14 -54 -6 -71 28
-64 16 4 38 8 51 11 42 8 62 16 62 26 0 5 10 19 23 31 12 13 29 36 39 53 9 16
21 29 27 28 6 -2 8 4 4 12 -6 18 23 55 43 55 7 0 15 9 19 20 4 11 21 23 43 29
43 12 49 9 34 -23 -9 -20 -8 -24 1 -20 9 3 18 -13 26 -48 15 -60 60 -145 92
-174 18 -16 15 -6 -13 51 -40 79 -80 239 -83 333 -1 34 -5 66 -9 69 -17 18 -4
63 24 83 51 36 72 113 46 171 -6 14 0 16 46 13 53 -4 53 -4 19 9 -57 22 -74
52 -66 117 9 75 26 112 65 141 62 46 107 100 125 151 10 29 18 58 18 66 0 12
13 13 66 8 l66 -7 -35 19 c-19 11 -37 28 -39 38 -2 11 -6 21 -10 24 -12 10
-31 50 -31 68 0 9 13 42 28 72 37 71 60 76 111 22 44 -46 75 -99 116 -197 59
-143 267 -535 279 -528 5 3 6 1 2 -5 -4 -7 -3 -20 3 -29 9 -17 10 -17 17 1 4
10 2 26 -4 35 -6 9 -19 32 -29 51 -9 19 -27 52 -40 73 -21 34 -22 37 -5 37 9
0 27 7 40 15 18 13 21 14 16 1 -7 -19 16 -32 28 -15 7 11 11 11 15 2 8 -22 35
-15 28 7 -5 16 -2 20 15 20 14 0 19 -4 14 -12 -5 -8 -2 -9 10 -5 10 4 20 7 22
7 12 0 1 39 -16 58 -11 12 -20 24 -20 27 0 10 -205 216 -250 252 -51 39 -81
101 -72 147 3 21 2 27 -6 22 -7 -4 -12 -14 -12 -22 0 -9 -5 -14 -12 -12 -12 4
-18 13 -38 63 -7 17 -16 37 -21 45 -5 8 -12 22 -16 30 -8 16 -18 30 -48 63
-19 21 -58 97 -100 194 -10 23 -22 40 -26 37 -4 -2 -16 7 -26 21 -10 15 -36
49 -57 78 l-40 51 -9 -27 c-5 -15 -13 -25 -18 -21 -5 3 -9 0 -9 -6 0 -6 -5 -8
-11 -4 -8 4 -8 9 0 17 17 17 13 26 -9 20 -17 -5 -20 0 -20 26 0 46 17 76 36
61 24 -20 44 -4 44 35 0 22 4 34 10 30 6 -3 10 -15 10 -26 0 -27 70 -109 92
-109 16 0 17 6 12 55 -7 60 -1 67 27 31 24 -30 67 -37 105 -16 55 30 115 146
89 172 -3 3 -23 0 -45 -5 -47 -13 -54 -8 -55 44 -1 40 13 53 22 20 4 -15 10
-17 31 -12 22 6 28 14 30 42 5 51 18 55 44 15 26 -41 61 -47 103 -20 35 23 31
34 -14 34 l-38 0 -7 61 c-14 136 -4 222 23 205 6 -4 11 -3 11 3 0 5 -16 19
-35 31 -48 29 -54 61 -21 101 27 31 30 47 20 87 -6 22 -8 21 -41 -18 -25 -28
-42 -40 -61 -40 -33 0 -55 13 -58 34 -7 47 -28 86 -60 108 l-35 26 33 6 c35 6
85 51 108 95 14 27 30 81 25 81 -2 0 -21 -11 -41 -25 -44 -30 -68 -31 -94 -5
-22 22 -28 96 -10 102 15 5 -7 141 -30 188 -19 40 -16 67 9 75 21 6 96 103 87
112 -4 4 -21 -7 -38 -26 -28 -29 -34 -32 -72 -26 -107 17 -160 62 -191 163
-28 92 -63 147 -142 222 -117 111 -150 123 -344 124 -133 1 -136 1 -168 29
-60 50 -80 56 -172 51 -61 -4 -101 -13 -149 -34 -36 -15 -75 -31 -87 -34 -13
-3 -32 -8 -42 -11 -13 -4 -30 4 -51 25 -17 16 -28 30 -24 30 4 0 -1 9 -11 20
-26 28 -36 25 -24 -9z m244 -400 c3 -15 5 -32 4 -37 -4 -24 3 -34 26 -34 14 0
25 3 25 8 0 10 60 43 70 37 10 -6 23 -86 24 -154 1 -34 6 -56 14 -58 7 -3 12
5 12 21 0 14 5 26 10 26 14 0 13 -18 -4 -73 -17 -57 -71 -127 -97 -127 -11 0
-17 -4 -14 -10 9 -15 41 -12 55 5 7 8 16 12 21 9 5 -3 28 15 51 39 44 45 88
137 88 182 0 14 4 25 9 25 20 0 35 -34 37 -86 3 -55 9 -74 23 -74 5 0 6 20 4
44 -7 60 10 65 41 12 57 -97 81 -296 44 -357 -38 -62 -7 -76 56 -24 46 38 49
37 60 -8 5 -20 0 -35 -16 -57 -19 -26 -23 -50 -31 -173 -7 -109 -13 -146 -25
-161 -11 -12 -17 -36 -17 -70 0 -47 -4 -54 -49 -101 -27 -27 -57 -68 -67 -91
-16 -36 -27 -44 -103 -77 -47 -20 -89 -37 -94 -37 -5 0 -53 -18 -107 -40 -54
-22 -103 -40 -110 -40 -6 0 -47 39 -92 88 -66 70 -97 95 -164 131 -96 50 -112
63 -114 90 -1 16 1 17 17 8 10 -7 16 -18 13 -26 -3 -9 0 -11 10 -7 9 3 15 0
15 -10 0 -11 6 -14 16 -10 9 3 43 -7 77 -24 64 -31 101 -38 112 -19 9 14 3 19
-34 24 -44 5 -132 47 -188 90 l-48 37 -3 81 c-1 45 -3 93 -5 106 -3 36 22 38
36 2 6 -17 14 -31 18 -31 4 0 10 -21 14 -46 8 -56 24 -63 81 -35 52 26 58 35
43 58 -31 49 -105 71 -79 23 6 -11 7 -20 1 -20 -10 0 -51 83 -51 104 0 8 24
41 53 73 29 32 77 89 107 128 l55 69 1 146 c1 80 2 152 3 160 3 37 -13 82 -35
97 -30 19 -30 29 -1 43 21 11 21 10 3 -4 -11 -9 -17 -19 -13 -22 9 -10 38 16
48 43 17 46 29 23 29 -59 0 -86 12 -134 43 -182 10 -15 20 -37 21 -49 4 -29
17 -61 29 -68 5 -4 -3 -18 -17 -32 -29 -29 -35 -80 -12 -109 18 -24 36 -23 36
2 0 24 8 25 36 5 12 -8 38 -15 58 -17 39 -2 43 -17 8 -33 -12 -5 -22 -13 -22
-16 0 -13 65 -56 105 -70 22 -8 43 -18 47 -24 4 -6 21 -6 47 1 24 7 45 7 56 2
19 -11 45 6 45 31 0 9 -7 29 -15 44 -8 16 -14 41 -12 55 1 15 -2 28 -6 29 -5
1 -14 9 -21 19 -9 12 -21 15 -37 11 -14 -4 -37 0 -53 8 -23 12 -32 13 -43 3
-12 -10 -18 -7 -34 12 -27 36 -24 43 19 36 193 -32 229 -41 250 -59 17 -16 22
-17 22 -6 0 8 -5 20 -10 25 -6 6 -16 30 -23 55 l-13 44 -79 7 c-44 4 -102 14
-130 23 -79 25 -174 45 -191 38 -8 -3 -21 3 -29 13 -22 30 -9 258 22 367 17
63 28 71 38 28z m-265 -273 c19 -13 36 -30 38 -38 3 -9 -6 -5 -22 10 -30 27
-29 27 -62 -27 -17 -27 -27 -9 -19 36 8 47 19 50 65 19z m-40 -98 c0 -5 -4
-10 -9 -10 -6 0 -13 5 -16 10 -3 6 1 10 9 10 9 0 16 -4 16 -10z m280 -68 c0
-5 9 -17 19 -29 10 -11 16 -25 12 -31 -3 -6 -18 6 -34 29 -22 30 -25 39 -13
39 9 0 16 -4 16 -8z m-218 -57 c38 -36 53 -97 16 -68 -7 6 -37 18 -65 27 -54
18 -66 32 -35 42 9 3 24 9 32 14 22 13 23 12 52 -15z m315 -11 c-3 -3 -12 -4
-19 -1 -8 3 -5 6 6 6 11 1 17 -2 13 -5z m-454 -67 c21 -8 22 2 1 31 -8 12 -13
22 -11 22 13 0 67 -33 67 -41 0 -5 14 -9 30 -9 32 0 69 -28 62 -48 -2 -7 -12
-12 -23 -12 -15 0 -18 -5 -13 -24 4 -18 -1 -29 -22 -45 -19 -15 -30 -18 -34
-10 -6 8 -9 8 -14 0 -4 -6 -16 -11 -27 -11 -15 0 -19 -7 -20 -32 -1 -18 -1
-36 -1 -39 1 -4 -10 -19 -23 -33 -14 -15 -25 -31 -25 -37 0 -5 -6 -9 -13 -9
-14 0 -17 18 -17 90 0 25 -5 67 -12 93 -10 41 -10 50 2 57 12 8 12 10 1 10
-18 0 -8 53 16 78 18 18 18 18 38 -3 11 -13 28 -25 38 -28z m-216 -49 c-3 -8
-6 -5 -6 6 -1 11 2 17 5 13 3 -3 4 -12 1 -19z m77 -31 c3 -23 10 -91 17 -152
6 -60 16 -118 21 -127 5 -12 5 -18 -2 -18 -7 0 -7 -6 -1 -17 26 -49 33 -173
10 -173 -40 0 43 -96 104 -121 41 -16 93 -53 138 -98 19 -20 52 -51 73 -70 21
-19 42 -45 47 -58 5 -12 16 -23 25 -23 11 0 14 -5 10 -16 -4 -10 0 -21 9 -28
25 -18 30 -54 27 -193 -3 -110 -1 -133 11 -133 17 0 27 38 17 66 -11 29 0 95
14 87 21 -13 90 -11 124 3 30 12 33 12 28 -1 -5 -15 5 -20 17 -9 4 4 19 8 34
9 16 1 47 11 70 22 24 12 55 19 73 17 19 -2 29 0 25 6 -3 6 -1 10 5 10 7 0 9
-13 4 -37 -7 -41 -46 -176 -59 -207 -6 -13 -5 -17 3 -13 23 15 54 140 83 332
16 105 28 127 24 42 -2 -40 1 -67 7 -67 6 0 7 7 4 16 -3 8 -2 13 2 10 4 -2 14
-1 22 5 13 7 12 9 -2 9 -22 0 -23 13 -3 30 8 7 13 16 10 20 -3 5 -1 11 5 15 6
4 8 11 4 16 -3 5 2 21 10 34 13 19 25 25 54 25 31 0 38 4 39 20 1 11 11 33 22
49 12 16 21 35 22 43 1 21 18 -24 18 -51 1 -13 12 -36 26 -53 17 -21 25 -41
25 -69 0 -39 28 -107 57 -141 10 -11 16 -40 17 -75 2 -79 36 -149 76 -158 16
-4 38 -4 47 -1 18 6 19 5 14 -82 0 -12 -6 -21 -13 -20 -17 4 -21 -27 -6 -43 7
-8 14 -32 15 -54 2 -22 10 -67 18 -101 8 -33 17 -98 20 -145 4 -74 1 -95 -21
-155 -24 -68 -94 -224 -104 -234 -3 -3 -23 -40 -45 -82 -29 -55 -42 -72 -46
-60 -5 14 -7 13 -14 -7 -5 -18 -9 -20 -16 -10 -6 11 -9 10 -15 -4 -3 -9 -13
-17 -21 -17 -9 0 -30 -9 -47 -19 -40 -25 -164 -71 -293 -110 -95 -29 -174 -43
-319 -55 -33 -2 -64 -6 -70 -7 -34 -6 -36 0 -29 84 4 45 9 106 11 136 2 29 7
58 10 63 9 14 6 237 -3 251 -4 7 2 5 12 -3 17 -14 18 -14 6 8 -9 17 -9 27 -2
36 8 10 7 17 -5 27 -31 26 -9 179 31 212 6 6 6 10 -2 14 -20 7 -15 51 8 83 17
23 20 37 15 69 -5 34 -4 39 9 35 8 -4 15 -12 15 -19 0 -17 27 -38 34 -26 3 5
-5 20 -19 32 -13 13 -25 27 -25 31 0 11 31 -3 52 -24 21 -21 57 -26 40 -5 -14
17 -20 87 -8 87 6 0 4 6 -3 13 -10 10 -14 9 -22 -5 -6 -10 -16 -15 -27 -12
-14 5 -15 4 -2 -5 10 -7 11 -11 3 -11 -8 0 -10 -7 -6 -17 5 -14 1 -13 -25 6
-37 26 -43 61 -11 61 27 0 16 16 -15 22 -22 4 -26 0 -40 -51 -8 -31 -18 -72
-21 -91 -3 -19 -11 -60 -17 -90 -8 -37 -13 -187 -13 -460 -1 -423 -2 -439 -49
-593 -15 -46 -16 -51 -21 -72 -6 -28 -107 -319 -132 -379 -24 -58 -40 -79
-107 -140 -43 -39 -117 -109 -165 -155 -131 -128 -145 -133 -276 -110 -74 13
-140 47 -141 74 -1 11 -3 27 -6 35 -19 57 -26 105 -15 112 9 6 9 8 1 8 -7 0
-14 10 -17 23 -2 12 -12 51 -22 87 -10 36 -24 101 -32 145 -7 44 -16 91 -19
105 -2 14 -7 48 -9 75 -3 28 -7 73 -10 102 -5 54 0 63 68 138 10 11 25 32 33
47 8 15 25 39 39 54 14 15 25 32 25 39 0 7 7 18 15 25 8 7 15 21 15 31 0 10 9
23 20 29 11 6 20 17 20 24 0 8 6 19 14 26 8 6 31 44 51 83 20 40 41 81 48 91
7 11 28 45 47 75 19 31 60 106 90 166 31 61 61 119 68 130 18 33 68 146 87
200 10 28 22 55 25 60 4 6 11 28 15 50 4 22 10 45 15 50 7 9 14 76 11 113 -1
6 -7 12 -15 12 -42 0 -43 65 -1 76 28 7 36 31 25 80 -9 40 -64 124 -107 165
-16 14 -66 64 -113 110 -83 82 -85 85 -98 152 -7 38 -10 73 -6 78 10 17 -17
140 -32 146 -17 6 -8 23 13 23 9 0 13 -6 9 -15 -4 -10 1 -14 15 -12 25 2 55
-34 65 -78 7 -27 6 -29 -9 -16 -27 22 -20 -3 8 -29 30 -28 32 -40 5 -35 -28 5
-25 -12 4 -19 16 -4 25 -15 30 -37 3 -17 3 -36 0 -41 -7 -11 13 -28 33 -28 11
0 9 25 -5 60 -3 8 -6 17 -6 20 -1 3 -6 12 -11 20 -5 8 -10 36 -11 62 -1 33
-12 65 -34 104 l-31 56 26 38 c32 47 54 115 55 178 1 26 4 61 8 77 6 30 6 30
13 -10 10 -53 11 -140 2 -149 -5 -4 -7 -33 -5 -64 3 -41 -2 -70 -17 -101 l-20
-45 27 -45 c14 -26 32 -52 39 -59 7 -7 13 -22 13 -32 0 -19 17 -36 26 -27 7 7
-26 100 -42 118 -8 9 -12 24 -8 33 7 19 24 22 24 4 1 -7 7 4 14 25 16 44 16
144 -1 172 -6 11 -14 73 -18 137 -7 102 -5 119 11 146 22 38 31 33 38 -21z
m801 33 c-3 -5 -10 -10 -16 -10 -5 0 -9 5 -9 10 0 6 7 10 16 10 8 0 12 -4 9
-10z m-32 -74 c20 -18 37 -39 37 -45 0 -19 -90 -13 -136 10 -66 32 -71 45 -17
46 25 1 51 7 56 12 16 16 19 14 60 -23z m-913 -101 c0 -8 -2 -15 -4 -15 -2 0
-6 7 -10 15 -3 8 -1 15 4 15 6 0 10 -7 10 -15z m-30 -153 c0 -13 -12 -22 -22
-16 -10 6 -1 24 13 24 5 0 9 -4 9 -8z m-50 -67 c0 -8 -4 -15 -10 -15 -5 0 -7
7 -4 15 4 8 8 15 10 15 2 0 4 -7 4 -15z m1375 -35 c4 -6 -5 -10 -19 -10 -28 0
-30 -9 -16 -65 4 -16 8 -22 9 -12 1 20 2 20 37 5 l27 -13 -24 -5 c-30 -7 -38
-46 -12 -65 15 -12 15 -14 3 -15 -23 0 -40 20 -40 47 0 31 -32 30 -46 -1 -15
-31 1 -63 22 -45 16 13 19 -2 3 -18 -6 -6 -12 -45 -13 -87 0 -42 -4 -76 -8
-76 -14 0 -21 73 -11 116 9 38 8 46 -9 61 -13 11 -17 25 -14 40 4 14 1 25 -10
31 -16 9 -15 12 4 32 11 12 18 28 16 35 -6 14 7 25 51 41 40 15 43 16 50 4z
m35 -60 c0 -5 -4 -10 -10 -10 -5 0 -10 5 -10 10 0 6 5 10 10 10 6 0 10 -4 10
-10z m-190 -150 c0 -5 -2 -10 -4 -10 -3 0 -8 5 -11 10 -3 6 -1 10 4 10 6 0 11
-4 11 -10z m170 -18 c0 -13 -12 -22 -22 -16 -10 6 -1 24 13 24 5 0 9 -4 9 -8z
m710 -41 c0 -6 -5 -13 -10 -16 -6 -4 -7 -11 -4 -17 4 -6 2 -8 -4 -5 -12 8 -4
47 9 47 5 0 9 -4 9 -9z m-946 -88 c-4 -38 -13 -79 -20 -93 -38 -75 -187 -171
-265 -172 -59 -1 -129 28 -129 53 0 14 7 19 28 19 39 1 102 32 139 68 17 18
34 32 37 32 2 0 22 16 43 36 21 20 54 44 73 55 19 10 49 29 65 43 17 14 31 25
33 26 1 0 0 -30 -4 -67z m495 -423 l0 -25 -24 30 c-18 22 -21 32 -13 42 14 18
37 -12 37 -47z m-2529 -50 c0 -5 -4 -10 -10 -10 -5 0 -10 5 -10 10 0 6 5 10
10 10 6 0 10 -4 10 -10z m1150 -124 c0 -8 -4 -18 -10 -21 -5 -3 -10 3 -10 14
0 12 5 21 10 21 6 0 10 -6 10 -14z m530 -16 c0 -5 -5 -10 -11 -10 -5 0 -7 5
-4 10 3 6 8 10 11 10 2 0 4 -4 4 -10z m-1092 -196 c-4 -3 -12 5 -18 18 -12 22
-12 22 6 6 10 -10 15 -20 12 -24z m128 -29 c4 -8 10 -12 15 -9 5 3 9 0 9 -5 0
-17 -14 -13 -40 9 -19 16 -20 20 -6 20 9 0 19 -7 22 -15z m-68 -24 c3 -8 -1
-12 -9 -9 -7 2 -15 10 -17 17 -3 8 1 12 9 9 7 -2 15 -10 17 -17z m126 -7 c9
-24 7 -28 -9 -14 -17 14 -20 30 -6 30 5 0 12 -7 15 -16z m-70 -63 c-2 -3 -12
3 -22 13 -16 17 -16 18 5 5 12 -7 20 -15 17 -18z m2446 -151 c0 -5 -2 -10 -4
-10 -3 0 -8 5 -11 10 -3 6 -1 10 4 10 6 0 11 -4 11 -10z m-3030 -51 c0 -5 -4
-9 -10 -9 -5 0 -10 7 -10 16 0 8 5 12 10 9 6 -3 10 -10 10 -16z m3915 -499
c47 -22 88 -40 91 -40 3 0 33 -20 68 -44 50 -37 62 -50 64 -75 1 -17 -3 -31
-8 -31 -6 0 -10 -8 -9 -17 3 -17 -36 -102 -50 -113 -4 -3 -19 -34 -34 -69 -36
-83 -120 -210 -227 -340 -47 -58 -102 -127 -122 -154 -20 -27 -60 -66 -88 -87
-28 -21 -104 -88 -168 -148 -64 -61 -155 -141 -202 -179 -81 -65 -238 -173
-253 -173 -4 0 -7 9 -7 20 0 32 -39 123 -66 155 l-26 30 26 -50 c54 -104 67
-228 28 -267 -14 -14 -24 -16 -50 -9 -29 9 -31 8 -22 -9 7 -13 6 -21 -4 -29
-11 -9 -15 -7 -19 10 -5 19 -8 20 -21 10 -9 -8 -14 -17 -11 -21 2 -4 -26 -39
-63 -77 -37 -39 -82 -97 -101 -129 -61 -103 -124 -184 -144 -184 -10 0 -16 -4
-13 -9 3 -5 -27 -37 -66 -72 -40 -35 -106 -97 -146 -136 -50 -49 -82 -73 -98
-73 -27 0 -33 -17 -9 -22 22 -4 -50 -103 -85 -117 -14 -6 -35 -18 -47 -26 -14
-11 -23 -13 -28 -5 -3 6 -1 9 6 8 7 -2 14 4 15 12 0 8 2 22 2 31 1 8 10 24 20
35 10 10 21 27 25 37 4 11 12 15 18 11 8 -4 9 -3 5 5 -4 6 0 14 8 17 9 3 13
10 10 15 -3 5 2 6 10 3 11 -4 16 0 16 10 0 19 17 51 43 80 12 14 17 16 17 6 0
-23 72 89 92 144 17 43 17 51 4 71 -10 15 -28 24 -53 27 -34 5 -44 0 -93 -41
-30 -25 -59 -49 -65 -54 -164 -129 -204 -159 -225 -164 -30 -7 -72 -38 -63
-46 9 -9 -45 -87 -60 -87 -16 0 -37 47 -37 84 0 23 13 44 50 84 28 28 54 52
58 52 4 0 28 20 54 44 27 24 52 46 57 48 24 8 153 125 189 171 14 19 16 41 2
32 -5 -3 -10 -1 -10 4 0 6 -7 11 -15 11 -17 0 -20 -17 -4 -22 12 -4 -85 -92
-242 -221 -59 -47 -121 -104 -138 -124 -61 -72 -75 -84 -105 -97 -26 -11 -33
-10 -42 2 -15 21 14 125 33 118 25 -10 92 45 168 139 22 26 48 55 58 64 9 8
17 19 17 23 0 13 62 100 99 137 21 21 49 41 64 45 15 3 27 13 27 22 0 8 4 13
9 9 16 -9 22 12 7 24 -11 10 -21 9 -43 -3 -34 -18 -113 -89 -113 -102 0 -5
-12 -23 -27 -39 -16 -16 -27 -34 -25 -39 4 -12 -49 -66 -59 -60 -5 3 -7 -1 -4
-8 3 -7 -12 -31 -33 -53 -21 -22 -45 -51 -55 -65 -15 -21 -17 -22 -17 -6 0 17
-2 18 -17 4 -24 -20 -51 -29 -57 -19 -3 4 -1 24 5 44 10 37 41 63 60 52 6 -4
8 2 4 17 -5 19 2 32 29 58 19 19 38 46 41 59 9 36 55 111 68 111 7 0 5 5 -3
10 -10 6 -11 10 -3 10 7 0 22 19 34 42 12 23 28 49 36 57 10 10 12 16 5 19 -8
2 -6 12 5 28 8 14 13 27 10 30 -3 3 -2 17 3 30 6 14 6 26 0 29 -6 4 -10 -1
-10 -9 0 -9 -4 -16 -10 -16 -5 0 -10 4 -10 10 0 18 -119 128 -189 175 -38 25
-77 55 -86 65 -14 16 -14 18 0 23 8 4 15 14 15 22 0 9 -4 13 -10 10 -5 -3 -10
-2 -10 4 0 5 4 12 10 16 5 3 6 13 3 23 -5 12 3 8 26 -11 21 -17 40 -26 52 -22
17 6 50 -8 76 -32 18 -16 -2 -27 -26 -13 -31 16 -43 12 -23 -8 9 -10 19 -17
21 -15 2 2 11 -3 20 -11 9 -8 30 -16 46 -18 17 -3 24 -3 18 -1 -7 3 -13 9 -13
15 0 6 7 7 18 2 9 -4 60 -18 112 -32 55 -14 109 -35 128 -50 l33 -25 72 16
c97 23 193 32 200 20 6 -9 58 -2 107 15 50 17 195 -57 289 -148 75 -72 96 -78
34 -9 -71 78 -263 188 -320 183 -15 -1 -22 0 -15 3 6 2 12 11 12 18 0 7 10 13
23 13 47 1 95 15 162 47 51 25 78 32 100 28 47 -9 17 12 -38 27 -39 11 -52 11
-73 0 -17 -10 -27 -11 -35 -3 -16 16 55 37 105 30 49 -7 53 -4 134 93 34 41
68 82 75 90 8 8 35 44 62 80 27 36 55 71 62 78 7 7 13 17 13 21 0 5 14 26 31
47 17 22 35 48 41 59 16 35 36 68 45 74 15 10 67 93 90 142 12 26 29 49 37 52
16 6 66 108 66 134 0 8 9 33 20 55 11 23 20 47 20 54 0 6 7 14 15 18 8 3 15
10 15 16 0 6 14 32 31 57 18 25 25 44 18 41 -8 -2 -18 -14 -24 -26 -5 -12 -13
-22 -17 -22 -5 0 -8 -7 -8 -15 0 -8 -4 -15 -8 -15 -5 0 -8 15 -8 34 1 29 6 37
41 54 101 50 100 50 305 67 35 3 66 8 69 10 6 7 2 9 96 -35z m-2535 -234 c0
-3 -4 -8 -10 -11 -5 -3 -10 -1 -10 4 0 6 5 11 10 11 6 0 10 -2 10 -4z m-1033
-139 c3 -72 15 -149 44 -267 37 -155 38 -162 20 -146 -21 19 -61 97 -61 120 0
9 -4 16 -10 16 -5 0 -10 9 -10 20 0 11 -4 20 -9 20 -4 0 -20 18 -35 41 -19 28
-25 47 -20 62 4 12 8 29 9 37 2 25 17 74 25 85 4 6 11 24 15 40 5 17 9 33 10
38 2 4 3 12 4 19 0 6 4 8 8 4 4 -4 9 -44 10 -89z m1033 67 c0 -8 -4 -12 -10
-9 -5 3 -10 10 -10 16 0 5 5 9 10 9 6 0 10 -7 10 -16z m-30 -24 c-18 -11 -24
-6 -16 16 5 14 9 15 19 5 9 -9 9 -14 -3 -21z m-1430 -40 c0 -5 -4 -10 -10 -10
-5 0 -10 5 -10 10 0 6 5 10 10 10 6 0 10 -4 10 -10z m308 -106 c0 -15 -4 -22
-10 -16 -5 5 -6 16 -2 25 9 23 12 21 12 -9z m-58 -245 c0 10 3 11 14 2 7 -6
34 -14 60 -17 26 -4 49 -11 52 -15 3 -5 15 -9 28 -9 35 0 95 -77 80 -102 -4
-7 -3 -8 4 -4 7 4 12 1 12 -8 0 -9 5 -16 10 -16 6 0 10 -4 10 -10 0 -5 -18
-10 -41 -10 -24 0 -38 4 -34 10 3 6 -4 10 -16 10 -22 0 -22 0 -3 -15 10 -8 36
-15 57 -15 20 0 37 -4 37 -9 0 -11 -66 -8 -185 7 -44 6 -83 8 -87 6 -5 -3 -15
2 -24 10 -13 13 -13 17 -2 21 11 5 13 19 7 69 -4 34 -9 67 -10 72 -1 5 -1 18
0 29 2 20 2 20 16 1 9 -12 15 -15 15 -7z m1110 5 c0 -10 -6 -14 -14 -11 -8 3
-16 0 -19 -7 -6 -14 -77 -21 -77 -7 0 15 16 22 56 25 19 2 38 7 41 10 10 10
13 7 13 -10z m480 -564 c0 -5 -4 -10 -10 -10 -5 0 -10 5 -10 10 0 6 5 10 10
10 6 0 10 -4 10 -10z m2709 -394 c58 -20 137 -93 161 -149 44 -101 23 -256
-42 -326 -17 -19 -74 -54 -127 -80 l-96 -46 -160 -2 -160 -1 115 9 c240 19
354 73 411 194 21 44 29 74 28 110 l-2 50 -7 -50 c-18 -136 -83 -201 -260
-262 -8 -3 8 15 36 40 68 61 97 128 97 222 -1 96 -30 162 -96 220 -59 51 -50
64 33 46 84 -18 146 -80 175 -173 12 -36 14 -39 14 -15 1 40 -22 89 -64 136
-42 47 -107 71 -189 71 -47 0 -49 1 -30 15 22 18 98 14 163 -9z m-145 -65 c62
-52 111 -130 101 -161 -3 -11 -41 -40 -83 -66 l-76 -46 -31 38 c-16 21 -45 53
-63 71 -31 31 -32 32 -10 35 13 2 64 -3 113 -10 50 -7 99 -11 110 -9 33 5 -50
26 -157 39 -54 7 -98 16 -98 20 0 4 7 5 15 2 8 -4 15 -2 15 4 0 5 16 26 35 45
19 19 35 31 35 26 0 -5 5 -9 11 -9 6 0 8 9 4 23 -7 22 -7 22 8 2 9 -11 19 -17
23 -12 4 4 2 7 -4 7 -7 0 -12 7 -12 16 0 18 34 11 64 -15z m-269 -151 c-10
-11 -30 -20 -44 -20 l-26 0 30 16 c17 8 34 19 39 24 18 18 19 0 1 -20z m133
-76 c52 -54 53 -56 36 -75 -10 -11 -34 -29 -53 -41 -36 -22 -51 -36 -51 -50 0
-13 34 5 84 44 27 21 52 38 56 38 5 0 20 -20 34 -45 17 -29 31 -42 41 -39 11
4 6 17 -21 55 l-34 49 69 45 c75 49 95 55 87 28 -2 -10 -8 -38 -11 -63 -9 -54
-32 -103 -45 -95 -6 3 -7 0 -4 -8 11 -30 -102 -107 -157 -107 -10 0 -19 -4
-19 -10 0 -13 -207 -13 -215 -1 -3 5 0 13 6 16 7 5 8 21 4 42 l-6 35 42 -7
c72 -12 191 -7 234 10 l40 15 -55 -6 c-111 -14 -229 -6 -216 14 2 4 -11 25
-30 46 -19 22 -33 42 -32 47 4 10 141 117 152 118 6 1 34 -24 64 -55z m-133
31 c-11 -8 -39 -28 -63 -46 l-42 -32 -25 27 -25 27 35 15 c19 8 46 12 59 8 14
-3 33 -1 43 5 27 15 41 13 18 -4z m-160 -71 c31 -20 31 -27 0 -44 -20 -11 -28
-10 -50 4 -22 14 -25 14 -25 1 0 -8 9 -20 20 -27 11 -7 20 -17 20 -22 0 -9
-138 -1 -148 9 -8 7 30 38 68 56 14 6 36 17 50 25 32 17 36 17 65 -2z m81 -80
c19 -20 33 -38 32 -39 -7 -7 -56 8 -78 25 -20 15 -22 20 -11 34 18 21 16 22
57 -20z m-2336 -34 c0 -5 -5 -10 -11 -10 -5 0 -7 5 -4 10 3 6 8 10 11 10 2 0
4 -4 4 -10z m2015 -23 c-8 -12 -18 -29 -21 -37 -22 -59 -21 -58 -86 -65 -35
-3 -101 -15 -148 -25 -47 -11 -103 -22 -125 -26 -32 -5 -36 -8 -20 -14 14 -5
6 -8 -26 -8 -42 -1 -46 1 -42 18 6 22 19 26 25 9 3 -8 18 -5 48 9 25 11 62 25
82 31 20 7 41 18 47 25 6 7 30 21 53 31 24 9 66 28 93 41 57 26 116 43 128 37
5 -3 1 -15 -8 -26z m296 -8 c22 -12 26 -61 5 -78 -10 -8 -57 -10 -162 -5 -82
3 -150 7 -152 9 -5 5 32 75 40 75 4 0 8 6 8 14 0 8 5 16 12 18 18 6 228 -21
249 -33z m-2071 -109 c0 -5 -5 -10 -11 -10 -5 0 -7 5 -4 10 3 6 8 10 11 10 2
0 4 -4 4 -10z m2103 -7 c-7 -2 -19 -2 -25 0 -7 3 -2 5 12 5 14 0 19 -2 13 -5z
m-2052 -16 c-15 -18 -51 -134 -51 -163 0 -31 -6 -34 -107 -44 -49 -5 -128 -14
-178 -19 -102 -11 -166 -30 -231 -69 -63 -38 -55 -46 14 -12 63 32 146 55 235
65 60 7 64 4 48 -37 -5 -13 -12 -31 -15 -40 -5 -16 -8 -16 -41 3 -47 28 -57
18 -11 -11 41 -25 41 -26 21 -104 -9 -33 -13 -61 -10 -65 9 -8 22 18 29 58 11
65 20 69 60 26 20 -21 35 -39 34 -40 -2 -1 -12 -7 -23 -13 -19 -11 -19 -11 3
-12 12 0 22 5 22 10 0 6 8 10 18 10 10 0 40 11 68 24 90 43 200 86 219 86 3 0
-13 -24 -35 -52 -22 -29 -40 -56 -40 -60 0 -4 -26 -10 -57 -13 -32 -4 -109
-15 -171 -26 l-113 -18 -63 34 -63 35 9 66 c10 73 8 109 -6 109 -5 0 -11 -34
-14 -75 -2 -41 -7 -78 -11 -83 -4 -4 -25 0 -46 9 -33 13 -37 14 -27 1 7 -8 26
-21 43 -27 28 -12 30 -16 24 -49 -11 -65 -24 -87 -61 -100 -48 -17 -46 -20
-63 89 -16 98 -32 154 -58 210 -33 68 -104 180 -126 199 -9 7 -17 18 -17 23 0
5 65 8 153 8 83 -1 159 1 167 3 29 8 55 21 62 31 4 6 12 5 23 -4 14 -12 21
-11 46 4 16 9 29 14 29 10 0 -4 6 -1 13 7 6 8 11 12 10 10 -2 -3 15 -27 58
-78 15 -20 45 -15 76 11 43 36 73 48 99 42 24 -6 35 9 12 16 -20 7 2 28 29 28
20 0 23 -3 14 -13z m-421 -17 c-20 -13 -33 -13 -25 0 3 6 14 10 23 10 15 0 15
-2 2 -10z m-54 -18 c-8 -14 -59 -22 -87 -14 -20 5 -14 8 31 17 59 12 65 12 56
-3z m829 -11 c-9 -16 -25 -3 -18 15 4 10 9 12 15 6 6 -6 7 -15 3 -21z m-235 7
c0 -4 -9 -8 -20 -8 -11 0 -20 -7 -20 -16 0 -8 5 -12 10 -9 15 9 12 -11 -3 -27
-7 -7 -16 -21 -20 -31 -7 -18 -63 -47 -91 -47 -15 0 -16 16 -3 38 5 6 6 16 2
21 -3 6 3 15 13 20 11 6 25 24 32 41 12 28 16 31 56 29 24 -2 44 -6 44 -11z
m195 -8 c3 -5 1 -10 -4 -10 -6 0 -11 5 -11 10 0 6 2 10 4 10 3 0 8 -4 11 -10z
m87 -47 c30 -46 88 -142 88 -147 0 -2 -23 -6 -51 -10 -44 -6 -54 -4 -71 13
-10 12 -23 21 -28 21 -13 0 12 -40 25 -41 13 -1 -26 -17 -44 -18 -8 -1 -12 6
-9 17 7 24 -17 56 -33 47 -7 -5 -10 -3 -7 6 3 9 16 13 38 11 23 -3 30 0 25 8
-4 7 -1 16 6 21 11 7 9 13 -10 28 -19 14 -22 24 -17 44 4 17 11 24 20 21 8 -3
17 -1 21 5 11 18 21 12 47 -26z m-1175 -35 c22 -35 52 -81 65 -103 58 -96 98
-237 98 -344 0 -57 0 -58 -37 -74 -94 -41 -230 -59 -287 -37 -14 5 -32 20 -41
34 -55 83 -22 467 46 532 22 21 85 52 110 54 3 0 24 -28 46 -62z m1050 -20
c-14 -24 -32 -42 -39 -41 -8 2 -29 -13 -48 -32 -37 -38 -51 -42 -69 -21 -9 10
-3 19 30 41 22 16 49 42 61 57 11 16 26 27 33 25 6 -3 18 -1 26 4 29 18 30 8
6 -33z m-246 -52 c-13 -15 -4 -26 21 -26 21 0 22 -4 8 -31 -13 -24 -41 -24
-69 -1 -25 21 -19 55 12 70 27 12 42 5 28 -12z m-111 -47 c-16 -21 -27 -28
-39 -23 -24 10 -85 23 -89 20 -2 -2 17 -12 42 -21 25 -10 46 -19 46 -21 0 -2
-16 -33 -35 -69 l-34 -65 -42 40 -41 39 21 36 c11 20 21 45 21 56 0 10 6 19
13 19 33 1 132 13 136 16 2 2 8 4 13 4 5 0 0 -14 -12 -31z m370 -4 c0 -14 -4
-25 -10 -25 -11 0 -14 33 -3 43 11 11 13 8 13 -18z m-50 -24 c-6 -12 -17 -21
-26 -21 -11 0 -10 7 8 31 24 32 37 25 18 -10z m-130 8 c0 -5 -7 -9 -15 -9 -9
0 -12 6 -9 15 6 15 24 11 24 -6z m-116 -10 c22 -13 33 -26 29 -35 -3 -8 -6
-14 -7 -14 0 0 -23 11 -50 24 -44 21 -47 25 -30 34 11 6 20 12 21 12 1 0 18
-9 37 -21z m186 6 c-7 -9 -15 -13 -19 -10 -3 3 1 10 9 15 21 14 24 12 10 -5z
m280 -24 c0 -14 -5 -18 -20 -14 -25 7 -26 20 -2 26 9 3 18 5 20 6 1 0 2 -8 2
-18z m-315 -1 c3 -6 0 -12 -7 -14 -7 -2 -34 -11 -60 -18 l-46 -15 16 23 c9 12
18 21 20 19 2 -2 15 1 30 5 37 11 40 11 47 0z m392 -20 c6 -16 8 -32 3 -35 -4
-3 -10 3 -13 13 -2 9 -8 25 -12 35 -4 9 -3 17 2 17 5 0 14 -13 20 -30z m-564
-13 l26 -22 -85 -42 -84 -42 21 42 c51 100 68 109 122 64z m421 16 c17 -57 15
-73 -10 -79 -22 -6 -29 -15 -25 -36 0 -5 -7 -8 -18 -8 -10 0 -32 -3 -49 -6
-28 -6 -29 -4 -25 20 3 14 9 26 13 26 4 0 11 11 14 25 16 65 24 75 60 75 24 0
36 -5 40 -17z m-104 0 c0 -5 -15 -37 -33 -73 -31 -60 -36 -65 -70 -68 l-37 -3
46 68 c25 37 51 71 57 75 15 10 37 10 37 1z m-127 -82 c-43 -64 -51 -71 -82
-71 -38 0 -39 -4 32 80 34 39 85 75 95 65 2 -2 -18 -35 -45 -74z m317 54 c0
-8 -9 -15 -20 -15 -11 0 -20 4 -20 10 0 5 7 6 17 3 11 -4 14 -3 9 5 -4 7 -2
12 3 12 6 0 11 -7 11 -15z m35 5 c3 -5 1 -10 -4 -10 -6 0 -11 5 -11 10 0 6 2
10 4 10 3 0 8 -4 11 -10z m-85 -174 c0 -35 -7 -83 -15 -107 -39 -110 -156
-164 -185 -85 -26 67 -29 110 -14 163 l15 52 57 11 c31 6 71 15 87 20 54 15
55 14 55 -54z m-822 14 c17 -11 32 -24 32 -28 0 -9 -79 -36 -86 -30 -6 6 8 78
15 78 3 0 21 -9 39 -20z"/>
<path d="M5061 7594 c0 -11 3 -14 6 -6 3 7 2 16 -1 19 -3 4 -6 -2 -5 -13z"/>
<path d="M4974 7096 c-3 -8 -13 -12 -22 -9 -13 4 -14 3 -3 -5 7 -5 22 -7 33
-4 13 3 16 7 8 12 -9 6 -9 9 1 13 11 4 11 6 1 6 -7 1 -15 -5 -18 -13z"/>
<path d="M5043 7053 c1 -13 10 -18 31 -19 l30 -1 -23 18 c-29 24 -40 24 -38 2z"/>
<path d="M4980 7049 c0 -5 5 -7 10 -4 6 3 10 8 10 11 0 2 -4 4 -10 4 -5 0 -10
-5 -10 -11z"/>
<path d="M4667 6972 c7 -4 15 -28 18 -52 7 -54 13 -61 31 -36 22 31 -8 96 -45
96 -12 0 -13 -2 -4 -8z"/>
<path d="M4688 6838 c9 -9 15 -9 24 0 9 9 7 12 -12 12 -19 0 -21 -3 -12 -12z"/>
<path d="M4510 6777 c1 -29 50 -65 50 -37 0 6 -4 10 -10 10 -5 0 -10 6 -10 14
0 8 -7 16 -15 20 -8 3 -15 0 -15 -7z"/>
<path d="M4590 7268 c0 -18 18 -34 28 -24 3 4 -2 14 -11 23 -16 16 -17 16 -17
1z"/>
<path d="M4510 7250 c0 -5 5 -10 10 -10 6 0 10 5 10 10 0 6 -4 10 -10 10 -5 0
-10 -4 -10 -10z"/>
<path d="M4605 7200 c3 -5 10 -10 16 -10 5 0 9 5 9 10 0 6 -7 10 -16 10 -8 0
-12 -4 -9 -10z"/>
<path d="M4470 7069 c0 -5 5 -7 10 -4 6 3 10 8 10 11 0 2 -4 4 -10 4 -5 0 -10
-5 -10 -11z"/>
<path d="M4197 6753 c-4 -3 -7 -11 -7 -17 0 -6 5 -5 12 2 6 6 9 14 7 17 -3 3
-9 2 -12 -2z"/>
<path d="M4220 6602 c0 -5 7 -9 15 -9 8 0 15 4 15 9 0 4 -7 8 -15 8 -8 0 -15
-4 -15 -8z"/>
<path d="M4197 6573 c-4 -3 -7 -11 -7 -17 0 -6 5 -5 12 2 6 6 9 14 7 17 -3 3
-9 2 -12 -2z"/>
<path d="M5396 6337 c3 -10 9 -15 12 -12 3 3 0 11 -7 18 -10 9 -11 8 -5 -6z"/>
<path d="M5610 6246 c0 -5 7 -18 17 -28 15 -17 15 -18 -10 -18 -15 0 -27 5
-27 12 0 6 -2 9 -4 7 -2 -2 0 -22 4 -44 6 -31 8 -34 9 -12 1 28 14 36 27 15
12 -18 26 31 14 50 -5 10 -10 13 -10 7 0 -5 -5 -3 -10 5 -5 8 -10 11 -10 6z"/>
<path d="M5606 6135 c-3 -8 -1 -15 3 -15 5 0 11 7 15 15 3 8 1 15 -3 15 -5 0
-11 -7 -15 -15z"/>
<path d="M5525 6130 c-3 -6 6 -26 21 -45 14 -19 21 -35 15 -35 -6 0 -11 3 -11
8 0 4 -9 13 -20 19 -16 10 -18 10 -14 -1 3 -7 -2 -20 -10 -28 -12 -13 -13 -19
-1 -41 8 -16 10 -29 4 -32 -5 -4 -9 0 -9 7 0 8 -5 6 -11 -4 -14 -25 -33 -23
-19 1 5 11 10 27 10 35 0 22 -25 9 -39 -20 -15 -34 -14 -42 4 -18 11 14 14 15
9 3 -6 -20 11 -33 28 -23 7 4 23 9 37 10 13 2 30 9 37 16 16 17 27 85 14 93
-6 4 -8 10 -5 15 3 5 -3 18 -14 29 -11 11 -23 16 -26 11z"/>
<path d="M5480 6070 c0 -5 5 -10 11 -10 5 0 7 5 4 10 -3 6 -8 10 -11 10 -2 0
-4 -4 -4 -10z"/>
<path d="M5366 6001 c-4 -7 -5 -15 -2 -18 9 -9 19 4 14 18 -4 11 -6 11 -12 0z"/>
<path d="M4771 5973 c-18 -17 -20 -23 -9 -23 17 0 42 25 36 37 -1 4 -14 -2
-27 -14z"/>
<path d="M4935 5960 c-4 -6 3 -10 14 -10 25 0 27 6 6 13 -8 4 -17 2 -20 -3z"/>
<path d="M5156 5945 c-3 -8 -12 -15 -21 -15 -8 0 -15 -4 -15 -10 0 -15 16 -12
34 6 9 8 16 20 16 25 0 14 -7 11 -14 -6z"/>
<path d="M5305 5921 c-3 -6 -3 -28 0 -51 3 -23 0 -50 -5 -60 -7 -13 -7 -21 1
-25 6 -4 8 -13 6 -19 -3 -7 -1 -19 4 -27 9 -14 11 13 14 139 1 49 -6 64 -20
43z"/>
<path d="M5090 5895 c7 -8 10 -25 6 -39 -3 -14 -2 -28 4 -31 7 -4 7 -12 0 -25
-17 -32 -11 -32 34 2 51 37 61 54 40 62 -8 3 -14 -1 -14 -10 0 -9 -5 -12 -12
-8 -7 4 -8 3 -4 -4 9 -14 -3 -15 -24 -2 -12 7 -12 12 -2 22 16 16 15 28 -3 28
-8 0 -15 5 -15 10 0 6 -5 10 -11 10 -8 0 -8 -5 1 -15z"/>
<path d="M5130 5779 c-22 -9 -23 -11 -8 -20 9 -5 22 -25 28 -44 16 -49 -12
-103 -61 -121 -31 -11 -32 -13 -8 -13 28 -1 48 12 73 49 20 31 21 97 1 117
-14 14 -14 17 2 29 21 16 9 17 -27 3z"/>
<path d="M4969 5758 c-2 -22 -5 -32 -13 -51 -9 -18 0 -67 12 -67 4 0 7 23 7
52 0 32 5 53 13 56 17 5 15 22 -3 22 -8 0 -16 -6 -16 -12z"/>
<path d="M4871 5654 c0 -11 3 -14 6 -6 3 7 2 16 -1 19 -3 4 -6 -2 -5 -13z"/>
<path d="M4720 5230 c0 -11 2 -20 4 -20 2 0 6 9 9 20 3 11 1 20 -4 20 -5 0 -9
-9 -9 -20z"/>
<path d="M4711 5184 c0 -11 3 -14 6 -6 3 7 2 16 -1 19 -3 4 -6 -2 -5 -13z"/>
<path d="M4687 5114 c-4 -4 -7 -14 -7 -23 0 -11 3 -12 11 -4 6 6 10 16 7 23
-2 6 -7 8 -11 4z"/>
<path d="M4641 4994 c-12 -26 -19 -49 -16 -52 8 -8 20 9 34 51 19 56 6 57 -18
1z"/>
<path d="M4610 4915 c-6 -8 -9 -19 -5 -25 11 -17 21 -11 23 15 2 29 -1 31 -18
10z"/>
<path d="M4590 4861 c0 -5 -3 -18 -6 -28 -5 -16 -4 -16 10 1 18 23 20 36 6 36
-5 0 -10 -4 -10 -9z"/>
<path d="M4566 4795 c-3 -9 -6 -22 -5 -28 0 -7 5 -1 10 12 5 13 8 26 5 28 -2
2 -6 -3 -10 -12z"/>
<path d="M4541 4724 c0 -11 3 -14 6 -6 3 7 2 16 -1 19 -3 4 -6 -2 -5 -13z"/>
<path d="M6078 3573 c7 -3 16 -2 19 1 4 3 -2 6 -13 5 -11 0 -14 -3 -6 -6z"/>
<path d="M4990 3566 c0 -2 8 -10 18 -17 15 -13 16 -12 3 4 -13 16 -21 21 -21
13z"/>
<path d="M6044 3465 c11 -8 24 -15 30 -15 5 0 1 7 -10 15 -10 8 -23 14 -29 14
-5 0 -1 -6 9 -14z"/>
<path d="M6168 3374 c12 -8 22 -21 22 -27 0 -7 16 -30 35 -52 42 -48 47 -35 7
15 -16 19 -34 45 -41 58 -6 12 -19 22 -29 22 -13 0 -12 -3 6 -16z"/>
<path d="M6296 3295 c-29 -24 -28 -45 3 -45 21 0 49 46 35 59 -5 6 -20 0 -38
-14z"/>
<path d="M5327 3229 c-29 -33 -35 -54 -14 -46 6 2 11 10 10 16 -2 6 2 11 7 11
6 0 10 6 10 14 0 8 6 16 13 19 6 2 10 7 6 10 -3 4 -17 -7 -32 -24z"/>
<path d="M5623 3233 c-24 -9 -13 -25 12 -19 15 4 25 2 25 -4 0 -6 5 -8 10 -5
8 5 7 11 -1 21 -12 14 -24 16 -46 7z"/>
<path d="M5495 3210 c-3 -5 1 -10 9 -10 9 0 16 5 16 10 0 6 -4 10 -9 10 -6 0
-13 -4 -16 -10z"/>
<path d="M5261 3147 c-18 -28 -9 -29 16 -3 14 14 17 23 9 23 -7 0 -19 -9 -25
-20z"/>
<path d="M5718 3073 c-24 -6 -24 -43 0 -43 18 0 52 29 52 43 0 8 -24 7 -52 0z"/>
<path d="M5525 3010 c-3 -5 3 -10 14 -10 12 0 21 5 21 10 0 6 -6 10 -14 10 -8
0 -18 -4 -21 -10z"/>
<path d="M5418 2953 c-35 -22 -44 -43 -16 -38 23 5 58 33 58 47 0 12 -12 10
-42 -9z"/>
<path d="M5929 2943 c-13 -15 -12 -15 9 -4 23 12 28 21 13 21 -5 0 -15 -7 -22
-17z"/>
<path d="M5536 2864 c-9 -9 -14 -19 -11 -22 3 -3 13 2 22 11 9 9 14 19 11 22
-3 3 -13 -2 -22 -11z"/>
<path d="M5088 2793 c7 -3 16 -2 19 1 4 3 -2 6 -13 5 -11 0 -14 -3 -6 -6z"/>
<path d="M5030 2650 c0 -5 5 -10 11 -10 5 0 7 5 4 10 -3 6 -8 10 -11 10 -2 0
-4 -4 -4 -10z"/>
<path d="M5152 2598 c3 -7 15 -14 29 -16 23 -2 23 -2 5 13 -24 18 -39 20 -34
3z"/>
<path d="M3581 3974 c0 -11 3 -14 6 -6 3 7 2 16 -1 19 -3 4 -6 -2 -5 -13z"/>
<path d="M3770 3970 c0 -5 5 -10 11 -10 5 0 7 5 4 10 -3 6 -8 10 -11 10 -2 0
-4 -4 -4 -10z"/>
<path d="M3673 3955 c0 -7 6 -11 14 -8 7 3 13 6 13 8 0 2 -6 5 -13 8 -8 3 -14
-1 -14 -8z"/>
<path d="M3798 3943 c7 -3 16 -2 19 1 4 3 -2 6 -13 5 -11 0 -14 -3 -6 -6z"/>
<path d="M5580 2389 c0 -11 5 -17 10 -14 6 3 10 13 10 21 0 8 -4 14 -10 14 -5
0 -10 -9 -10 -21z"/>
<path d="M6276 8233 c-10 -24 10 -39 29 -23 14 11 21 11 48 -4 l32 -17 -35 30
c-38 34 -65 39 -74 14z"/>
<path d="M2418 8140 c-134 -46 -216 -234 -174 -400 27 -109 107 -250 125 -221
6 10 10 9 15 -4 5 -15 7 -15 22 -1 8 9 22 16 30 16 8 0 12 5 9 10 -4 6 -2 17
5 24 11 14 4 66 -9 66 -14 0 -15 258 -2 274 6 7 9 21 5 30 -4 11 -1 16 10 16
9 0 16 6 16 14 0 7 19 26 42 42 35 25 51 29 106 29 60 0 66 -2 92 -33 41 -49
72 -174 85 -337 9 -118 33 -218 58 -244 12 -13 45 -38 72 -56 44 -30 51 -32
62 -18 12 15 24 15 68 -2 15 -6 11 3 -15 31 -46 51 -61 79 -66 123 -2 20 -6
45 -9 56 -2 11 -7 58 -10 105 -8 100 -10 120 -17 140 -3 8 -11 39 -17 67 -10
51 -53 133 -69 133 -5 0 -17 8 -28 18 -129 116 -284 163 -406 122z m32 -60
c-19 -16 -42 -36 -51 -45 -9 -8 -21 -15 -28 -15 -7 0 -9 -5 -6 -10 4 -6 1 -18
-6 -26 -14 -18 -18 -30 -24 -88 -3 -22 -7 -47 -10 -57 -3 -9 -1 -21 6 -24 7
-5 8 -10 1 -14 -7 -4 -6 -22 5 -54 12 -36 13 -51 4 -60 -16 -16 -26 -1 -46 75
-35 131 -1 256 84 309 25 16 55 29 68 29 13 0 23 5 23 12 0 6 3 8 7 4 4 -4 -8
-20 -27 -36z m387 -202 c16 -20 33 -97 38 -168 3 -36 9 -84 15 -108 6 -24 8
-47 5 -52 -3 -5 -2 -18 4 -28 6 -10 6 -24 1 -32 -5 -9 -5 -19 1 -26 6 -8 6
-14 0 -18 -5 -3 -7 -16 -3 -28 3 -13 1 -19 -5 -15 -20 12 -52 143 -63 257 -7
63 -14 118 -16 122 -2 4 0 9 5 12 5 4 5 21 0 43 -5 21 -9 41 -9 46 0 11 17 8
27 -5z"/>
<path d="M9287 7683 c-48 -25 -85 -48 -83 -50 2 -3 30 0 60 7 99 20 151 -2
191 -80 l25 -50 -266 0 -265 0 52 -97 c28 -54 72 -135 96 -181 l45 -83 87 47
c93 50 123 72 81 59 -50 -14 -150 -17 -180 -5 -26 11 -90 100 -90 125 0 4 117
6 260 3 143 -2 260 -2 260 1 1 10 -175 351 -180 350 -3 0 -44 -21 -93 -46z"/>
<path d="M1345 7591 c-3 -11 -11 -24 -18 -29 -8 -6 -103 -2 -269 12 -142 12
-258 18 -258 13 0 -6 49 -67 134 -167 12 -14 59 -71 105 -128 l84 -103 -17
-36 c-32 -67 -9 -44 34 32 23 42 39 79 36 82 -2 3 -12 -9 -21 -26 -8 -17 -19
-31 -24 -31 -10 0 -71 75 -71 88 0 7 55 116 66 130 1 2 29 0 63 -4 56 -6 60
-8 50 -26 -6 -11 -8 -22 -6 -25 6 -6 127 207 127 225 0 18 -8 15 -15 -7z
m-248 -160 c8 -4 2 -24 -21 -64 l-33 -57 -43 52 c-24 29 -50 61 -59 71 -15 17
-12 18 64 11 44 -3 85 -9 92 -13z"/>
<path d="M3102 7228 c-18 -18 -15 -35 10 -52 30 -21 37 -20 31 4 -3 11 0 20 6
20 6 0 11 -4 11 -9 0 -10 36 -21 45 -13 4 5 -77 62 -88 62 -2 0 -8 -5 -15 -12z"/>
<path d="M7518 7233 c7 -3 16 -2 19 1 4 3 -2 6 -13 5 -11 0 -14 -3 -6 -6z"/>
<path d="M8315 7114 c-27 -25 -97 -87 -155 -137 -58 -50 -118 -103 -135 -118
-54 -50 -207 -170 -422 -333 -75 -58 -95 -75 -139 -127 -34 -41 -36 -59 -12
-79 47 -38 212 -9 239 42 6 11 13 17 17 14 8 -9 52 35 52 51 0 8 5 11 10 8 6
-3 10 -3 10 2 0 4 14 14 30 21 18 8 30 21 30 32 0 10 5 22 10 25 6 3 10 2 10
-3 0 -6 9 -8 20 -5 11 3 20 11 20 18 0 8 9 17 20 20 11 3 20 13 20 21 0 8 11
19 25 24 14 5 25 14 25 20 0 5 6 10 13 10 8 0 32 17 53 38 55 51 117 98 127
94 5 -1 11 6 14 17 3 11 14 23 25 27 22 7 45 24 88 67 16 15 33 27 39 27 6 0
11 7 11 15 0 8 7 15 16 15 8 0 35 20 59 44 24 24 47 41 50 38 3 -3 6 8 6 24 1
17 3 22 6 12 2 -10 9 -18 15 -18 5 0 8 7 5 15 -4 8 -2 17 3 20 6 4 5 11 -2 19
-11 11 -15 10 -25 -3 -11 -14 -13 -14 -14 -1 -1 8 -1 19 0 23 2 13 -42 46 -62
47 -12 0 -16 4 -11 13 5 8 2 8 -9 -2 -11 -9 -17 -10 -17 -2 0 19 -13 12 -65
-35z m95 -34 c13 -9 12 -13 -7 -29 -13 -11 -23 -27 -23 -38 0 -15 -2 -16 -10
-3 -8 13 -11 11 -16 -7 -4 -13 -13 -23 -21 -23 -8 0 -46 -31 -84 -70 -39 -38
-72 -70 -75 -70 -2 0 -13 -8 -23 -17 -11 -10 -36 -31 -56 -48 -20 -16 -50 -45
-67 -62 -18 -18 -38 -33 -45 -33 -8 0 -16 -7 -19 -15 -3 -8 -14 -17 -23 -20
-10 -3 -24 -17 -31 -30 -7 -14 -19 -25 -26 -25 -7 0 -22 -12 -33 -26 -12 -15
-25 -23 -32 -18 -9 5 -10 2 -6 -10 5 -13 3 -17 -7 -13 -10 4 -13 1 -9 -9 3 -9
-1 -14 -14 -14 -11 0 -34 -13 -50 -29 -21 -20 -35 -26 -44 -20 -17 10 36 63
211 214 63 54 149 128 190 164 96 85 92 81 136 116 20 17 47 40 60 53 13 12
27 22 31 22 4 0 22 16 38 35 34 38 34 39 55 25z m-722 -648 c2 -7 -3 -12 -12
-12 -9 0 -16 7 -16 16 0 17 22 14 28 -4z"/>
<path d="M7499 7092 c-28 -17 -69 -71 -69 -91 0 -25 32 -5 53 34 12 22 28 46
35 53 23 25 18 27 -19 4z"/>
<path d="M2834 7019 c-3 -6 2 -18 11 -27 16 -16 17 -16 12 -1 -3 9 0 22 6 28
8 8 7 11 -5 11 -9 0 -20 -5 -24 -11z"/>
<path d="M2925 7000 c-3 -6 1 -7 9 -4 18 7 21 14 7 14 -6 0 -13 -4 -16 -10z"/>
<path d="M2435 6960 c-3 -5 3 -10 14 -10 11 0 46 -13 76 -30 59 -32 70 -36 61
-21 -7 11 -121 71 -135 71 -5 0 -13 -4 -16 -10z"/>
<path d="M2856 6961 c-3 -5 1 -14 9 -21 8 -7 15 -9 15 -5 0 4 7 2 15 -5 8 -7
15 -9 15 -4 -1 14 -48 45 -54 35z"/>
<path d="M9744 6943 c22 -73 28 -66 -98 -107 l-116 -37 -22 21 c-22 20 -44 25
-72 14 -14 -5 -13 -9 4 -32 l21 -26 -58 -18 c-66 -20 -83 -22 -83 -9 0 18 -21
64 -26 58 -3 -3 24 -95 61 -205 l66 -200 96 29 c53 16 98 31 100 33 3 2 -29 3
-70 3 -62 -2 -80 2 -103 19 -38 28 -63 64 -66 97 -3 27 0 29 91 58 l93 31 30
-36 c32 -40 35 -40 73 -26 l27 10 -26 31 c-14 17 -26 34 -26 38 0 4 30 15 68
25 37 10 75 21 84 23 13 4 18 -4 24 -34 4 -21 9 -32 12 -24 6 17 -70 281 -81
281 -5 0 -6 -8 -3 -17z"/>
<path d="M549 6895 c-14 -7 -37 -31 -51 -52 -28 -41 -122 -315 -115 -336 2 -6
9 5 16 26 7 20 14 37 15 37 6 0 420 -141 424 -144 2 -2 -2 -14 -8 -26 -6 -11
-10 -29 -8 -38 2 -9 21 35 42 98 22 63 41 121 44 128 2 6 -1 12 -7 12 -6 0
-11 -6 -11 -12 -1 -35 -15 -38 -81 -17 -35 12 -68 25 -72 29 -5 4 32 21 82 38
l90 30 3 -26 c2 -19 12 2 35 73 40 127 49 163 35 150 -5 -5 -12 -19 -14 -29
-2 -13 -32 -32 -103 -62 l-100 -43 -5 48 c-3 26 -13 60 -23 75 -34 51 -131 72
-188 41z m112 -125 c38 -28 59 -69 59 -120 0 -51 -2 -51 -152 3 l-118 42 22
44 c11 23 30 47 42 52 33 14 113 2 147 -21z"/>
<path d="M6390 6762 c0 -18 32 -72 42 -72 4 0 8 -6 8 -12 0 -7 27 -47 60 -88
33 -41 60 -78 60 -82 0 -22 232 -398 246 -398 11 0 -2 27 -64 131 -140 236
-144 245 -48 117 32 -42 64 -79 72 -82 10 -4 13 -2 8 7 -12 20 -158 204 -233
292 -9 11 -36 46 -60 78 -24 31 -47 57 -52 57 -5 0 -9 6 -9 13 0 18 -29 56
-30 39z"/>
<path d="M2861 6692 c-7 -13 -6 -23 1 -30 18 -18 23 -15 24 18 1 34 -10 39
-25 12z"/>
<path d="M2917 6675 c10 -13 24 -25 32 -25 8 0 4 9 -10 25 -31 32 -45 32 -22
0z"/>
<path d="M7230 6680 c0 -5 15 -10 33 -10 24 0 28 3 17 10 -20 13 -50 13 -50 0z"/>
<path d="M3554 6520 c3 -14 6 -28 6 -31 0 -10 40 -18 40 -8 0 5 -4 9 -10 9 -5
0 -17 12 -25 28 -16 27 -16 27 -11 2z"/>
<path d="M3592 6443 c-9 -3 -10 -9 -3 -17 6 -7 11 -26 13 -43 1 -18 6 -29 10
-27 4 3 8 -5 8 -18 0 -31 15 -52 30 -43 8 5 7 12 -5 25 -10 11 -13 20 -6 24
12 8 -6 55 -28 72 -8 6 -11 16 -7 22 8 13 7 13 -12 5z"/>
<path d="M3490 6376 c0 -9 5 -16 10 -16 6 0 10 4 10 9 0 6 -4 13 -10 16 -5 3
-10 -1 -10 -9z"/>
<path d="M8306 6288 c5 -8 2 -9 -10 -5 -9 4 -15 3 -12 -2 3 -5 16 -11 29 -13
17 -3 23 0 23 14 0 11 -8 18 -19 18 -11 0 -15 -4 -11 -12z"/>
<path d="M8250 6270 c-8 -5 -12 -11 -9 -14 2 -3 11 -1 19 4 8 5 12 11 9 14 -2
3 -11 1 -19 -4z"/>
<path d="M6770 6235 c7 -9 15 -13 17 -11 7 7 -7 26 -19 26 -6 0 -6 -6 2 -15z"/>
<path d="M8410 6211 c10 -21 30 -37 30 -26 0 14 -21 45 -31 45 -6 0 -6 -7 1
-19z"/>
<path d="M6795 6210 c-3 -5 -2 -10 4 -10 15 0 51 -83 51 -118 0 -17 7 -49 14
-69 10 -26 16 -90 18 -206 3 -148 5 -170 21 -178 22 -13 22 -35 0 -43 -13 -5
-14 -9 -5 -15 11 -6 23 -131 24 -236 0 -16 24 -112 44 -173 2 -7 14 -12 26
-10 19 2 24 10 26 42 2 22 -2 42 -8 46 -9 6 -9 13 1 31 6 13 14 36 15 51 2 16
11 42 19 58 14 27 5 44 -10 20 -13 -21 -20 -9 -22 36 -2 41 0 46 17 41 12 -3
18 -1 14 5 -4 6 -1 13 5 17 7 5 3 12 -13 21 -20 10 -24 18 -19 41 3 18 0 36
-8 46 -11 13 -11 17 -1 20 13 5 17 43 5 43 -7 0 -8 22 -4 83 1 17 3 17 28 -3
15 -12 35 -38 45 -58 9 -20 18 -32 18 -27 0 6 7 -5 16 -24 18 -42 29 -34 20
13 -4 22 -25 55 -55 88 -27 30 -73 98 -102 153 -29 55 -65 118 -79 140 -15 22
-30 56 -34 76 -7 41 -61 116 -71 99z"/>
<path d="M7330 6150 c-12 -16 -19 -30 -16 -30 6 0 56 49 56 55 0 15 -22 1 -40
-25z"/>
<path d="M8493 6129 c5 -17 3 -18 -10 -7 -14 11 -15 10 -9 -8 7 -24 -35 -74
-64 -74 -9 0 -20 -3 -24 -7 -3 -4 -19 -7 -34 -8 -154 -6 -158 -7 -124 -15 45
-10 51 -19 27 -37 -19 -14 -17 -15 20 -9 22 4 56 9 75 12 95 12 160 31 160 46
0 6 -6 6 -15 -2 -20 -17 -19 -1 1 21 9 10 18 30 19 43 2 14 6 30 10 36 3 6 1
9 -7 8 -7 -2 -12 3 -10 10 1 6 -3 12 -9 12 -7 0 -9 -9 -6 -21z"/>
<path d="M7399 6120 l-24 -20 32 11 c18 6 30 15 27 20 -7 12 -8 12 -35 -11z"/>
<path d="M9688 6065 c-89 -29 -168 -137 -168 -230 0 -137 118 -255 255 -255
85 0 180 63 220 145 26 53 26 156 1 207 -23 48 -75 100 -121 122 -51 24 -130
29 -187 11z m226 -126 c128 -35 107 -161 -35 -203 -74 -23 -204 -31 -256 -17
-72 20 -104 86 -67 139 46 67 247 112 358 81z"/>
<path d="M340 6038 c-65 -44 -98 -152 -114 -369 -5 -69 -4 -71 6 -30 l11 43
61 -6 c34 -4 133 -17 221 -29 l160 -23 5 -49 c5 -49 6 -48 18 40 6 50 14 119
17 155 4 62 4 63 -6 21 l-11 -43 -46 6 c-26 4 -62 10 -79 13 l-33 5 0 92 c0
67 -5 100 -18 126 -33 67 -129 90 -192 48z m97 -109 c15 -6 38 -19 49 -30 23
-21 52 -105 40 -116 -7 -7 -255 22 -264 31 -3 3 0 24 7 46 20 67 94 97 168 69z"/>
<path d="M3620 6040 c0 -5 5 -10 11 -10 5 0 7 5 4 10 -3 6 -8 10 -11 10 -2 0
-4 -4 -4 -10z"/>
<path d="M3655 6032 c0 -10 4 -22 8 -28 3 -6 4 -14 0 -18 -13 -12 -23 -5 -24
17 0 12 -3 16 -6 9 -3 -7 -1 -20 3 -30 4 -9 6 -20 6 -24 -1 -5 3 -8 8 -8 6 0
9 -10 7 -22 -2 -13 -2 -18 0 -11 2 7 11 9 19 6 17 -6 19 13 2 20 -9 4 -10 8
-2 14 13 9 15 43 2 43 -4 0 -8 9 -8 19 0 11 -4 22 -8 25 -5 3 -8 -3 -7 -12z"/>
<path d="M8155 6010 l-30 -8 33 -1 c17 0 32 4 32 9 0 6 -1 9 -2 9 -2 -1 -16
-5 -33 -9z"/>
<path d="M8088 5993 c6 -2 18 -2 25 0 6 3 1 5 -13 5 -14 0 -19 -2 -12 -5z"/>
<path d="M7978 5963 c-14 -9 -32 -28 -38 -42 -9 -21 -8 -26 7 -35 31 -19 92
-15 99 6 7 23 29 35 90 48 89 19 94 20 94 30 0 5 -6 7 -12 5 -7 -2 -35 -6 -61
-9 -58 -6 -147 -34 -147 -47 0 -5 -7 -9 -15 -9 -9 0 -12 -6 -9 -15 4 -8 1 -15
-4 -15 -6 0 -14 9 -17 21 -5 15 1 29 21 50 32 33 30 35 -8 12z"/>
<path d="M6160 5851 c0 -5 5 -13 10 -16 6 -3 10 -2 10 4 0 5 -4 13 -10 16 -5
3 -10 2 -10 -4z"/>
<path d="M3690 5820 c0 -5 5 -10 10 -10 6 0 10 5 10 10 0 6 -4 10 -10 10 -5 0
-10 -4 -10 -10z"/>
<path d="M3285 5800 c-3 -5 -2 -10 4 -10 5 0 13 5 16 10 3 6 2 10 -4 10 -5 0
-13 -4 -16 -10z"/>
<path d="M3710 5779 c7 -11 14 -19 16 -16 7 7 -7 37 -17 37 -6 0 -5 -9 1 -21z"/>
<path d="M3802 5745 c0 -16 2 -22 5 -12 2 9 2 23 0 30 -3 6 -5 -1 -5 -18z"/>
<path d="M7010 5731 c0 -6 5 -13 10 -16 6 -3 10 1 10 9 0 9 -4 16 -10 16 -5 0
-10 -4 -10 -9z"/>
<path d="M3727 5709 c3 -10 9 -19 13 -19 5 0 11 -14 15 -30 4 -17 10 -28 15
-25 10 6 -21 83 -36 89 -7 3 -10 -3 -7 -15z"/>
<path d="M7807 5693 c-12 -11 -8 -22 13 -33 18 -9 20 -8 20 15 0 24 -18 34
-33 18z"/>
<path d="M6326 5655 c-9 -26 -7 -32 5 -12 6 10 9 21 6 23 -2 3 -7 -2 -11 -11z"/>
<path d="M7068 5643 c7 -3 16 -2 19 1 4 3 -2 6 -13 5 -11 0 -14 -3 -6 -6z"/>
<path d="M7037 5633 c-10 -9 -9 -23 1 -23 5 0 9 7 9 15 0 17 -1 18 -10 8z"/>
<path d="M3770 5616 c0 -11 82 -178 85 -174 10 10 -62 178 -76 178 -5 0 -9 -2
-9 -4z"/>
<path d="M3112 5598 c-18 -18 -14 -36 11 -44 35 -11 77 -10 77 3 0 8 -14 10
-41 8 -39 -4 -41 -4 -35 20 7 28 5 30 -12 13z"/>
<path d="M3150 5595 c7 -9 15 -13 17 -11 7 7 -7 26 -19 26 -6 0 -6 -6 2 -15z"/>
<path d="M7030 5551 c0 -6 4 -13 10 -16 6 -3 7 1 4 9 -7 18 -14 21 -14 7z"/>
<path d="M2675 5489 c-16 -10 -35 -17 -42 -15 -6 3 -13 2 -15 -2 -2 -4 -16
-14 -32 -22 -16 -8 -31 -21 -34 -29 -3 -9 0 -11 8 -6 9 5 10 1 6 -16 -4 -17
-2 -15 10 7 12 23 34 40 78 59 33 16 64 28 68 29 3 1 10 4 14 9 15 15 -32 5
-61 -14z"/>
<path d="M3430 5469 c0 -5 5 -7 10 -4 6 3 10 8 10 11 0 2 -4 4 -10 4 -5 0 -10
-5 -10 -11z"/>
<path d="M8243 5460 c-55 -22 -66 -93 -21 -132 27 -23 98 -25 98 -3 0 10 -10
15 -34 15 -49 0 -66 9 -66 36 0 24 59 73 90 75 10 0 9 3 -5 9 -25 11 -35 11
-62 0z"/>
<path d="M8336 5425 c-3 -9 0 -15 8 -15 8 0 13 -7 12 -16 0 -9 5 -18 12 -20 7
-1 8 0 2 3 -22 11 -9 25 18 19 l27 -6 -27 17 c-16 10 -28 21 -28 25 0 14 -18
8 -24 -7z"/>
<path d="M3830 5425 c0 -5 5 -17 10 -25 5 -8 10 -10 10 -5 0 6 -5 17 -10 25
-5 8 -10 11 -10 5z"/>
<path d="M3415 5399 c-4 -6 -5 -12 -2 -15 2 -3 7 2 10 11 7 17 1 20 -8 4z"/>
<path d="M3850 5370 c0 -5 5 -10 10 -10 6 0 10 5 10 10 0 6 -4 10 -10 10 -5 0
-10 -4 -10 -10z"/>
<path d="M8309 5359 c-11 -7 -11 -9 4 -9 9 0 17 -8 17 -17 0 -15 2 -16 10 -3
5 8 10 18 10 21 0 12 -27 17 -41 8z"/>
<path d="M3866 5325 c4 -8 8 -15 10 -15 2 0 4 7 4 15 0 8 -4 15 -10 15 -5 0
-7 -7 -4 -15z"/>
<path d="M665 5209 c0 -31 -5 -34 -233 -152 -127 -67 -229 -124 -225 -128 5
-4 114 -42 244 -85 l236 -78 10 -45 10 -46 1 45 c0 25 -3 70 -8 100 l-7 55 -2
-48 c-1 -53 5 -52 -81 -22 l-35 12 -3 80 -3 81 43 17 c24 9 48 19 55 22 7 3
13 -7 16 -24 7 -47 7 89 1 170 -7 76 -19 106 -19 46z m-111 -301 c11 -94 15
-90 -66 -62 -40 13 -80 27 -88 30 -10 4 11 19 60 44 41 22 78 39 81 40 3 0 9
-24 13 -52z"/>
<path d="M9650 5163 c-49 -18 -100 -126 -100 -212 0 -134 100 -222 197 -175
45 22 78 76 94 153 15 71 44 101 99 101 33 0 48 -6 71 -29 60 -60 19 -131 -75
-131 -55 0 -86 -59 -50 -94 44 -44 119 -2 149 83 19 54 20 161 1 204 -31 77
-114 112 -191 83 -55 -21 -79 -59 -101 -154 -19 -83 -39 -107 -94 -107 -52 0
-80 27 -80 75 0 52 26 80 84 91 62 11 76 23 76 65 0 44 -34 64 -80 47z"/>
<path d="M3911 5073 c0 -5 4 -17 9 -28 8 -18 9 -17 9 8 1 15 -3 27 -9 27 -5 0
-10 -3 -9 -7z"/>
<path d="M3960 5021 c0 -5 5 -13 10 -16 6 -3 10 -2 10 4 0 5 -4 13 -10 16 -5
3 -10 2 -10 -4z"/>
<path d="M10080 4935 c0 -2 14 -34 32 -70 26 -52 37 -65 55 -65 39 0 29 40
-25 93 -43 43 -62 55 -62 42z"/>
<path d="M7170 4905 c-7 -9 -8 -15 -2 -15 5 0 12 7 16 15 3 8 4 15 2 15 -2 0
-9 -7 -16 -15z"/>
<path d="M10347 4710 c-50 -591 -224 -1221 -486 -1765 -133 -275 -298 -555
-463 -786 -40 -57 -213 -274 -304 -384 -91 -109 -426 -439 -542 -533 -286
-233 -432 -339 -642 -467 -316 -192 -653 -355 -950 -460 -310 -109 -622 -192
-869 -230 -85 -14 -161 -27 -170 -29 -20 -6 -326 -34 -491 -45 l-125 -8 158
-2 c335 -3 799 72 1202 194 219 66 489 164 608 219 29 13 95 44 147 68 52 25
147 73 210 108 63 35 140 77 169 93 329 178 729 485 1057 812 320 319 592 664
789 1000 32 55 75 129 96 165 55 95 220 437 272 565 194 483 355 1174 345
1485 l-3 95 -8 -95z"/>
<path d="M4820 4389 c0 -5 5 -7 10 -4 6 3 10 8 10 11 0 2 -4 4 -10 4 -5 0 -10
-5 -10 -11z"/>
<path d="M4790 4381 c0 -5 5 -13 10 -16 6 -3 10 -2 10 4 0 5 -4 13 -10 16 -5
3 -10 2 -10 -4z"/>
<path d="M648 4347 c-49 -11 -88 -24 -88 -29 0 -4 27 -8 59 -8 106 0 153 -32
172 -116 7 -30 10 -57 7 -60 -6 -5 -282 66 -408 106 -89 27 -93 27 -85 -12 28
-137 75 -341 79 -346 7 -7 206 30 206 39 0 3 -30 8 -68 11 -78 6 -126 27 -146
66 -16 31 -31 112 -21 112 13 0 170 -41 328 -86 87 -25 162 -44 166 -42 5 2
-12 90 -38 195 -35 147 -50 193 -61 192 -8 -1 -54 -10 -102 -22z"/>
<path d="M9565 4337 c-47 -22 -102 -90 -119 -148 -28 -94 -18 -150 37 -206 47
-50 54 -39 9 12 -46 52 -58 97 -42 155 15 56 56 80 135 80 162 0 325 -90 325
-180 0 -44 -28 -60 -101 -60 -81 0 -111 -18 -107 -63 2 -23 11 -35 31 -45 90
-43 197 75 197 218 -1 107 -47 182 -140 223 -57 26 -182 33 -225 14z"/>
<path d="M3355 4290 c-3 -6 1 -7 9 -4 18 7 21 14 7 14 -6 0 -13 -4 -16 -10z"/>
<path d="M5010 4200 c0 -5 5 -10 11 -10 5 0 7 5 4 10 -3 6 -8 10 -11 10 -2 0
-4 -4 -4 -10z"/>
<path d="M4938 4147 l-27 -22 25 -1 c14 -1 23 1 20 4 -3 3 -1 11 6 19 18 23 5
23 -24 0z"/>
<path d="M4800 4121 c0 -10 26 -9 36 2 4 4 -2 7 -14 7 -12 0 -22 -4 -22 -9z"/>
<path d="M5673 4015 c-32 -30 -51 -54 -43 -54 13 -1 120 93 120 105 0 15 -27
-3 -77 -51z"/>
<path d="M4831 4033 c-9 -10 1 -13 52 -13 35 0 71 6 80 13 15 10 6 12 -52 12
-42 0 -73 -5 -80 -12z"/>
<path d="M9965 3999 c11 -68 31 -109 53 -109 36 0 35 31 -4 87 -49 71 -58 75
-49 22z"/>
<path d="M5570 3909 c0 -5 5 -7 10 -4 6 3 10 8 10 11 0 2 -4 4 -10 4 -5 0 -10
-5 -10 -11z"/>
<path d="M4617 3809 c-20 -12 -23 -49 -3 -49 8 0 17 12 20 26 8 32 6 35 -17
23z"/>
<path d="M4552 3758 c-7 -7 -12 -18 -12 -24 0 -14 38 -29 47 -20 4 3 -1 6 -10
6 -19 0 -23 15 -7 25 12 7 13 25 2 25 -4 0 -13 -5 -20 -12z"/>
<path d="M9229 3733 c-50 -156 -201 -492 -300 -670 -149 -267 -259 -427 -450
-658 -155 -187 -231 -268 -380 -410 -171 -163 -516 -423 -717 -542 -764 -450
-1571 -653 -2437 -613 -266 12 -416 30 -634 75 -424 87 -708 184 -1086 371
-538 265 -1023 648 -1402 1109 -295 359 -532 760 -688 1165 -48 124 -75 174
-75 137 0 -53 218 -529 335 -732 133 -230 327 -496 529 -725 80 -91 295 -298
412 -395 313 -264 553 -420 923 -601 326 -160 605 -256 976 -337 341 -75 518
-92 940 -91 283 0 354 3 497 23 513 68 947 198 1383 412 277 137 455 245 695
424 479 358 895 829 1176 1335 138 247 334 686 334 747 0 27 -19 12 -31 -24z"/>
<path d="M6561 2473 c-1 -7 -7 -13 -15 -13 -7 0 -19 -7 -26 -15 -10 -12 -9
-15 8 -15 23 0 46 24 39 42 -4 10 -6 10 -6 1z"/>
<path d="M6490 2410 c-13 -8 -12 -10 3 -10 9 0 17 5 17 10 0 12 -1 12 -20 0z"/>
</g>
</svg>
